<svg width="54" height="60" viewBox="0 0 54 60" fill="none" xmlns="http://www.w3.org/2000/svg">
<path d="M1.21875 60.0036C0.97011 60.0036 0.731653 59.9049 0.555837 59.729C0.380022 59.5532 0.28125 59.3148 0.28125 59.0661V51.8615C0.347818 47.5521 2.08446 43.4369 5.12531 40.3827C6.72838 38.8286 8.6242 37.6085 10.7027 36.7932C12.7812 35.9779 15.001 35.5836 17.2331 35.6333C17.4771 35.6438 17.7073 35.7491 17.8748 35.9267C18.0423 36.1044 18.1339 36.3404 18.1301 36.5845C18.1264 36.8286 18.0275 37.0617 17.8545 37.234C17.6816 37.4064 17.4482 37.5044 17.2041 37.5074H16.8103C16.7765 37.5074 16.7427 37.5055 16.7091 37.5018C12.8734 37.5337 9.19758 39.0422 6.44531 41.7139C3.77518 44.4312 2.24134 48.0641 2.15625 51.8727V59.0661C2.15625 59.3148 2.05748 59.5532 1.88166 59.729C1.70585 59.9049 1.46739 60.0036 1.21875 60.0036ZM36.7922 40.9996C36.5779 40.9998 36.37 40.9263 36.2034 40.7915C33.5606 38.6654 30.27 37.5072 26.8781 37.5093L26.4769 37.5074C26.3538 37.5064 26.232 37.4812 26.1187 37.4332C26.0053 37.3851 25.9025 37.3153 25.8162 37.2275C25.7298 37.1398 25.6616 37.0358 25.6154 36.9217C25.5692 36.8076 25.5459 36.6855 25.5469 36.5624C25.5434 36.4381 25.5656 36.3144 25.612 36.199C25.6584 36.0836 25.728 35.979 25.8166 35.8917C25.9051 35.8044 26.0107 35.7362 26.1267 35.6915C26.2427 35.6467 26.3667 35.6263 26.4909 35.6314L26.8791 35.6333C30.7002 35.6317 34.4069 36.9371 37.3838 39.3327C37.5343 39.4547 37.6434 39.6204 37.696 39.8069C37.7485 39.9935 37.742 40.1917 37.6772 40.3744C37.6124 40.5571 37.4927 40.7152 37.3343 40.827C37.176 40.9388 36.9869 40.9987 36.7931 40.9986L36.7922 40.9996Z" fill="#F51515"/>
<path d="M21.8269 41.2416C20.5063 41.216 19.2338 40.7415 18.2187 39.8964C17.2037 39.0512 16.5066 37.8857 16.2422 36.5916C16.2266 36.5224 16.2188 36.4516 16.2188 36.3807V31.1082C16.2188 30.8595 16.3175 30.6211 16.4933 30.4452C16.6692 30.2694 16.9076 30.1707 17.1562 30.1707C17.4049 30.1707 17.6433 30.2694 17.8192 30.4452C17.995 30.6211 18.0938 30.8595 18.0938 31.1082V36.2682C18.2899 37.1237 18.7623 37.8908 19.4382 38.4508C20.114 39.0109 20.9554 39.3327 21.8325 39.3666H21.8484C22.7289 39.3418 23.5757 39.0234 24.2543 38.462C24.933 37.9005 25.4044 37.1283 25.5938 36.2682V31.1082C25.5938 30.8595 25.6925 30.6211 25.8683 30.4452C26.0442 30.2694 26.2826 30.1707 26.5312 30.1707C26.7799 30.1707 27.0183 30.2694 27.1942 30.4452C27.37 30.6211 27.4688 30.8595 27.4688 31.1082V36.3807C27.4687 36.4516 27.4609 36.5224 27.4453 36.5916C27.1792 37.8862 26.4806 39.0518 25.4643 39.8969C24.4481 40.7419 23.1746 41.2161 21.8531 41.2416H21.8269Z" fill="#F51515"/>
<path d="M21.8438 33.5043C15.6403 33.5043 10.5938 27.0656 10.5938 19.1512C10.5935 18.3587 10.6445 17.5671 10.7466 16.7812C10.7824 16.5379 10.9124 16.3185 11.1085 16.1701C11.3046 16.0218 11.5512 15.9565 11.795 15.9882C12.0388 16.0199 12.2604 16.1462 12.4121 16.3398C12.5637 16.5333 12.6332 16.7787 12.6056 17.0231C12.5144 17.7288 12.4687 18.4396 12.4688 19.1512C12.4688 26.0324 16.6744 31.6293 21.8438 31.6293C27.0131 31.6293 31.2188 26.0324 31.2188 19.1512C31.2187 18.4396 31.1729 17.7288 31.0819 17.0231C31.0661 16.9009 31.0745 16.7768 31.1066 16.6578C31.1387 16.5389 31.194 16.4274 31.2692 16.3298C31.3444 16.2322 31.4381 16.1504 31.545 16.089C31.6518 16.0277 31.7697 15.9879 31.8919 15.9721C32.0141 15.9563 32.1382 15.9647 32.2571 15.9968C32.3761 16.029 32.4875 16.0842 32.5851 16.1595C32.6827 16.2347 32.7645 16.3284 32.8259 16.4352C32.8873 16.5421 32.927 16.6599 32.9428 16.7821C33.0432 17.5681 33.0936 18.3597 33.0938 19.1521C33.0938 27.0656 28.0472 33.5043 21.8438 33.5043Z" fill="#F51515"/>
<path d="M26.3625 28.1173H17.3297C17.0388 28.1151 16.7536 28.0374 16.5018 27.8918C16.25 27.7462 16.0404 27.5377 15.8934 27.2867C15.7228 27.0029 15.6276 26.6802 15.6169 26.3492C15.6063 26.0182 15.6805 25.69 15.8325 25.3958L16.8572 23.4298C16.9961 23.1514 17.2091 22.9166 17.4727 22.7512C17.7363 22.5858 18.0404 22.4963 18.3516 22.4923H25.2244C25.5222 22.4945 25.8141 22.5759 26.0701 22.7281C26.3262 22.8804 26.5371 23.098 26.6812 23.3586L27.8175 25.3227C27.9864 25.6159 28.0754 25.9483 28.0756 26.2867C28.0758 26.6252 27.9871 26.9577 27.8184 27.2511C27.6743 27.5118 27.4634 27.7294 27.2074 27.8817C26.9514 28.0339 26.6604 28.1152 26.3625 28.1173ZM17.5059 26.2423H26.1534L25.0978 24.3673H18.4828L17.5059 26.2423ZM32.1562 47.8002H11.5312C11.2826 47.8002 11.0442 47.7014 10.8683 47.5256C10.6925 47.3498 10.5938 47.1113 10.5938 46.8627V37.4689C10.5938 37.2203 10.6925 36.9818 10.8683 36.806C11.0442 36.6302 11.2826 36.5314 11.5312 36.5314C11.7799 36.5314 12.0183 36.6302 12.1942 36.806C12.37 36.9818 12.4688 37.2203 12.4688 37.4689V45.9252H31.2188V37.4689C31.2188 37.2203 31.3175 36.9818 31.4933 36.806C31.6692 36.6302 31.9076 36.5314 32.1562 36.5314C32.4049 36.5314 32.6433 36.6302 32.8192 36.806C32.995 36.9818 33.0938 37.2203 33.0938 37.4689V46.8627C33.0938 47.1113 32.995 47.3498 32.8192 47.5256C32.6433 47.7014 32.4049 47.8002 32.1562 47.8002ZM6.84375 59.998C6.59511 59.998 6.35665 59.8992 6.18084 59.7234C6.00502 59.5476 5.90625 59.3091 5.90625 59.0605V40.0948C5.90625 39.8462 6.00502 39.6077 6.18084 39.4319C6.35665 39.2561 6.59511 39.1573 6.84375 39.1573C7.09239 39.1573 7.33085 39.2561 7.50666 39.4319C7.68248 39.6077 7.78125 39.8462 7.78125 40.0948V59.0605C7.78125 59.3091 7.68248 59.5476 7.50666 59.7234C7.33085 59.8992 7.09239 59.998 6.84375 59.998ZM34.0312 14.0548C33.7826 14.0548 33.5442 13.9561 33.3683 13.7803C33.1925 13.6044 33.0938 13.366 33.0938 13.1173C33.0938 8.62297 29.5284 4.76891 24.4247 3.74328C24.3012 3.72205 24.1832 3.67626 24.0776 3.60863C23.9721 3.541 23.8812 3.45289 23.8103 3.34953C23.7395 3.24616 23.69 3.12963 23.665 3.00683C23.6399 2.88403 23.6397 2.75745 23.6644 2.63458C23.6891 2.5117 23.7382 2.39502 23.8088 2.29145C23.8793 2.18787 23.97 2.0995 24.0753 2.03155C24.1806 1.96361 24.2985 1.91747 24.4219 1.89587C24.5454 1.87426 24.6719 1.87764 24.7941 1.90578C30.7847 3.10766 34.9688 7.71828 34.9688 13.1173C34.9688 13.366 34.87 13.6044 34.6942 13.7803C34.5183 13.9561 34.2799 14.0548 34.0312 14.0548ZM9.65625 14.0548C9.40761 14.0548 9.16915 13.9561 8.99334 13.7803C8.81752 13.6044 8.71875 13.366 8.71875 13.1173C8.71875 7.71922 12.9028 3.10859 18.8934 1.90484C19.1372 1.85586 19.3905 1.90573 19.5975 2.04348C19.8045 2.18124 19.9484 2.39558 19.9973 2.63938C20.0463 2.88317 19.9965 3.13643 19.8587 3.34346C19.721 3.55048 19.5066 3.6943 19.2628 3.74328C14.1591 4.76891 10.5938 8.62297 10.5938 13.1183C10.5938 13.3669 10.495 13.6054 10.3192 13.7812C10.1433 13.957 9.90489 14.0558 9.65625 14.0558V14.0548Z" fill="#F51515"/>
<path d="M32.3606 17.8406H11.325C11.1304 17.8403 10.9408 17.7797 10.7821 17.6671L7.23746 15.1509C7.11548 15.0642 7.016 14.9497 6.94734 14.8168C6.87868 14.6838 6.84282 14.5364 6.84277 14.3868V13.1287C6.84277 12.8804 6.94129 12.6422 7.1167 12.4664C7.29211 12.2907 7.53008 12.1917 7.7784 12.1912L13.3575 12.1837C20.8912 12.1762 28.4078 12.1787 35.9071 12.1912C36.1555 12.1917 36.3934 12.2907 36.5689 12.4664C36.7443 12.6422 36.8428 12.8804 36.8428 13.1287V14.369C36.8428 14.5182 36.8073 14.6652 36.7391 14.798C36.671 14.9307 36.5722 15.0452 36.4509 15.1321L32.9043 17.6652C32.7453 17.7786 32.5549 17.8395 32.3596 17.8396L32.3606 17.8406ZM11.625 15.9656H32.0596L34.7203 14.0643C27.6178 14.0531 20.4978 14.0512 13.3603 14.0587L8.94746 14.0643L11.625 15.9656ZM22.2909 9.36743H21.3965C20.5211 9.36619 19.6819 9.01795 19.0628 8.39902C18.4437 7.7801 18.0952 6.94097 18.0937 6.06556V3.29618C18.0947 2.42044 18.443 1.58084 19.0621 0.961505C19.6813 0.342173 20.5208 -0.00632779 21.3965 -0.00756836H22.2909C23.1666 -0.00632779 24.0061 0.342173 24.6253 0.961505C25.2445 1.58084 25.5927 2.42044 25.5937 3.29618V6.06462C25.5925 6.9402 25.2441 7.77956 24.625 8.39869C24.0058 9.01782 23.1665 9.36619 22.2909 9.36743ZM21.3965 1.86743C21.0178 1.86793 20.6548 2.01865 20.3871 2.28651C20.1194 2.55437 19.969 2.91749 19.9687 3.29618V6.06462C19.9692 6.44315 20.1198 6.80603 20.3875 7.07369C20.6551 7.34135 21.018 7.49194 21.3965 7.49243H22.2909C22.6693 7.49194 23.032 7.34148 23.2996 7.07402C23.5673 6.80656 23.718 6.44392 23.7187 6.06556V3.29618C23.7185 2.91749 23.568 2.55437 23.3003 2.28651C23.0326 2.01865 22.6696 1.86793 22.2909 1.86743H21.3965ZM52.7812 60.0074H34.9687C34.7201 60.0074 34.4816 59.9087 34.3058 59.7328C34.13 59.557 34.0312 59.3186 34.0312 59.0699V42.1762C34.0312 41.9275 34.13 41.6891 34.3058 41.5133C34.4816 41.3375 34.7201 41.2387 34.9687 41.2387H52.7812C53.0299 41.2387 53.2683 41.3375 53.4441 41.5133C53.6199 41.6891 53.7187 41.9275 53.7187 42.1762V59.0699C53.7187 59.3186 53.6199 59.557 53.4441 59.7328C53.2683 59.9087 53.0299 60.0074 52.7812 60.0074ZM35.9062 58.1324H51.8437V43.1137H35.9062V58.1324Z" fill="#F51515"/>
<path d="M50.9062 43.1398C50.6576 43.1398 50.4192 43.0411 50.2433 42.8652C50.0675 42.6894 49.9688 42.451 49.9688 42.2023V35.6323H37.7812V42.1798C37.7812 42.4285 37.6825 42.6669 37.5067 42.8427C37.3308 43.0186 37.0924 43.1173 36.8438 43.1173C36.5951 43.1173 36.3567 43.0186 36.1808 42.8427C36.005 42.6669 35.9062 42.4285 35.9062 42.1798V34.6948C35.9062 34.4462 36.005 34.2077 36.1808 34.0319C36.3567 33.8561 36.5951 33.7573 36.8438 33.7573H50.9062C51.1549 33.7573 51.3933 33.8561 51.5692 34.0319C51.745 34.2077 51.8438 34.4462 51.8438 34.6948V42.2023C51.8438 42.451 51.745 42.6894 51.5692 42.8652C51.3933 43.0411 51.1549 43.1398 50.9062 43.1398Z" fill="#F51515"/>
<path d="M46.2188 48.7573H41.5312C41.2826 48.7573 41.0442 48.6586 40.8683 48.4827C40.6925 48.3069 40.5938 48.0685 40.5938 47.8198V42.2023C40.5938 41.9537 40.6925 41.7152 40.8683 41.5394C41.0442 41.3636 41.2826 41.2648 41.5312 41.2648C41.7799 41.2648 42.0183 41.3636 42.1942 41.5394C42.37 41.7152 42.4688 41.9537 42.4688 42.2023V46.8823H45.2812V42.2023C45.2812 41.9537 45.38 41.7152 45.5558 41.5394C45.7317 41.3636 45.9701 41.2648 46.2188 41.2648C46.4674 41.2648 46.7058 41.3636 46.8817 41.5394C47.0575 41.7152 47.1562 41.9537 47.1562 42.2023V47.8198C47.1562 48.0685 47.0575 48.3069 46.8817 48.4827C46.7058 48.6586 46.4674 48.7573 46.2188 48.7573ZM44.3438 56.2573H38.7188C38.4701 56.2573 38.2317 56.1586 38.0558 55.9827C37.88 55.8069 37.7812 55.5685 37.7812 55.3198C37.7812 55.0712 37.88 54.8327 38.0558 54.6569C38.2317 54.4811 38.4701 54.3823 38.7188 54.3823H44.3438C44.5924 54.3823 44.8308 54.4811 45.0067 54.6569C45.1825 54.8327 45.2812 55.0712 45.2812 55.3198C45.2812 55.5685 45.1825 55.8069 45.0067 55.9827C44.8308 56.1586 44.5924 56.2573 44.3438 56.2573ZM46.2188 39.3861H41.5312C41.2826 39.3861 41.0442 39.2873 40.8683 39.1115C40.6925 38.9357 40.5938 38.6972 40.5938 38.4486V34.6948C40.5938 34.4462 40.6925 34.2077 40.8683 34.0319C41.0442 33.8561 41.2826 33.7573 41.5312 33.7573C41.7799 33.7573 42.0183 33.8561 42.1942 34.0319C42.37 34.2077 42.4688 34.4462 42.4688 34.6948V37.5111H45.2812V34.6948C45.2812 34.4462 45.38 34.2077 45.5558 34.0319C45.7317 33.8561 45.9701 33.7573 46.2188 33.7573C46.4674 33.7573 46.7058 33.8561 46.8817 34.0319C47.0575 34.2077 47.1562 34.4462 47.1562 34.6948V38.4486C47.1562 38.6972 47.0575 38.9357 46.8817 39.1115C46.7058 39.2873 46.4674 39.3861 46.2188 39.3861Z" fill="#F51515"/>
</svg>
