<svg width="52" height="50" viewBox="0 0 52 50" fill="none" xmlns="http://www.w3.org/2000/svg">
<path d="M39.125 38.1296C38.8764 38.1296 38.6379 38.0309 38.4621 37.8551C38.2863 37.6792 38.1875 37.4408 38.1875 37.1921V29.6921C38.1875 29.4435 38.2863 29.205 38.4621 29.0292C38.6379 28.8534 38.8764 28.7546 39.125 28.7546C39.3736 28.7546 39.6121 28.8534 39.7879 29.0292C39.9637 29.205 40.0625 29.4435 40.0625 29.6921V37.1921C40.0625 37.4408 39.9637 37.6792 39.7879 37.8551C39.6121 38.0309 39.3736 38.1296 39.125 38.1296Z" fill="#F51515"/>
<path d="M46.625 38.1297H39.125C38.8764 38.1297 38.6379 38.0309 38.4621 37.8551C38.2863 37.6793 38.1875 37.4408 38.1875 37.1922C38.1875 36.9435 38.2863 36.7051 38.4621 36.5293C38.6379 36.3534 38.8764 36.2547 39.125 36.2547H46.625C46.8736 36.2547 47.1121 36.3534 47.2879 36.5293C47.4637 36.7051 47.5625 36.9435 47.5625 37.1922C47.5625 37.4408 47.4637 37.6793 47.2879 37.8551C47.1121 38.0309 46.8736 38.1297 46.625 38.1297ZM21.1109 47.5047C20.9463 47.505 20.7846 47.4617 20.6422 47.379L1.15625 36.129C1.01374 36.0468 0.89539 35.9284 0.813107 35.7859C0.730824 35.6434 0.687504 35.4817 0.6875 35.3172V12.8172C0.6875 12.4825 0.865625 12.1722 1.15625 12.0053L20.6422 0.755286C20.7846 0.672819 20.9463 0.629395 21.1109 0.629395C21.2755 0.629395 21.4372 0.672819 21.5797 0.755286L41.0656 12.0053C41.2081 12.0876 41.3265 12.2059 41.4088 12.3484C41.4911 12.4909 41.5344 12.6526 41.5344 12.8172V22.2644C41.5344 22.513 41.4356 22.7514 41.2598 22.9273C41.084 23.1031 40.8455 23.2019 40.5969 23.2019C40.3482 23.2019 40.1098 23.1031 39.934 22.9273C39.7581 22.7514 39.6594 22.513 39.6594 22.2644V13.3581L21.1109 2.64997L2.5625 13.3581V34.7762L21.1109 45.4844L25.2453 43.0975C25.4605 42.9751 25.7154 42.9428 25.9543 43.0077C26.1932 43.0726 26.3968 43.2293 26.5206 43.4437C26.6444 43.6581 26.6783 43.9127 26.615 44.1521C26.5518 44.3914 26.3964 44.596 26.1828 44.7212L21.5797 47.3781C21.4374 47.461 21.2756 47.5047 21.1109 47.5047Z" fill="#F51515"/>
<path d="M39.0369 49.3712C37.8697 49.3712 36.7081 49.1977 35.5822 48.8565C31.2678 47.5477 27.9547 43.8409 27.1391 39.4121C26.3084 34.9037 28.1366 30.2096 31.7994 27.4515C33.8825 25.8831 36.4925 25.0187 39.1484 25.0187C41.0703 25.0187 42.9734 25.4715 44.6544 26.3293C48.6997 28.3918 51.3125 32.6556 51.3125 37.1921C51.3125 40.4621 49.9944 43.5399 47.6 45.8565C45.2938 48.0896 42.1719 49.3712 39.0369 49.3712ZM39.1484 26.8937C36.8975 26.8937 34.6869 27.624 32.9272 28.9487C29.8278 31.2831 28.28 35.2571 28.9831 39.0718C29.6722 42.819 32.4772 45.9549 36.1259 47.0612C39.6388 48.1271 43.6091 47.109 46.2959 44.5084C48.3228 42.549 49.4375 39.9503 49.4375 37.1921C49.4375 33.3531 47.2259 29.7446 43.8031 27.999C42.36 27.27 40.7653 26.8913 39.1484 26.8937ZM9.49345 18.2968C9.287 18.297 9.08626 18.2291 8.92238 18.1035C8.75851 17.9779 8.64065 17.8018 8.58712 17.6024C8.53359 17.403 8.54737 17.1915 8.62632 17.0008C8.70527 16.81 8.84498 16.6507 9.02376 16.5474L28.5097 5.29744C28.6164 5.23491 28.7343 5.19409 28.8568 5.17734C28.9793 5.16059 29.1039 5.16824 29.2235 5.19984C29.343 5.23144 29.4551 5.28638 29.5533 5.36148C29.6515 5.43658 29.7339 5.53037 29.7957 5.63744C29.8575 5.74451 29.8976 5.86276 29.9135 5.98536C29.9295 6.10797 29.921 6.23252 29.8886 6.35183C29.8562 6.47115 29.8005 6.58289 29.7248 6.6806C29.649 6.77831 29.5547 6.86008 29.4472 6.92119L9.96126 18.1712C9.81916 18.2536 9.65775 18.297 9.49345 18.2968ZM13.2435 20.4624C13.037 20.4626 12.8363 20.3947 12.6724 20.2691C12.5085 20.1436 12.3907 19.9674 12.3371 19.768C12.2836 19.5686 12.2974 19.3572 12.3763 19.1664C12.4553 18.9757 12.595 18.8163 12.7738 18.7131L32.2597 7.46306C32.3664 7.40053 32.4843 7.35972 32.6068 7.34297C32.7293 7.32622 32.8539 7.33387 32.9735 7.36547C33.093 7.39707 33.2051 7.452 33.3033 7.52711C33.4015 7.60221 33.4839 7.69599 33.5457 7.80307C33.6075 7.91014 33.6476 8.02838 33.6635 8.15099C33.6795 8.27359 33.671 8.39814 33.6386 8.51746C33.6062 8.63678 33.5505 8.74851 33.4748 8.84622C33.399 8.94394 33.3047 9.0257 33.1972 9.08681L13.7113 20.3368C13.5692 20.4193 13.4077 20.4626 13.2435 20.4624Z" fill="#F51515"/>
<path d="M13.2425 26.9574C12.9939 26.9574 12.7554 26.8586 12.5796 26.6828C12.4038 26.507 12.305 26.2685 12.305 26.0199V19.5249C12.305 19.2763 12.4038 19.0378 12.5796 18.862C12.7554 18.6862 12.9939 18.5874 13.2425 18.5874C13.4911 18.5874 13.7296 18.6862 13.9054 18.862C14.0812 19.0378 14.18 19.2763 14.18 19.5249V26.0199C14.18 26.2685 14.0812 26.507 13.9054 26.6828C13.7296 26.8586 13.4911 26.9574 13.2425 26.9574Z" fill="#F51515"/>
<path d="M13.2416 26.9576C13.0773 26.9576 12.9159 26.9143 12.7738 26.8319L9.02376 24.6663C8.91628 24.6052 8.82195 24.5234 8.74619 24.4257C8.67044 24.328 8.61477 24.2163 8.58237 24.097C8.54998 23.9776 8.54151 23.8531 8.55744 23.7305C8.57338 23.6079 8.61341 23.4896 8.67523 23.3826C8.73705 23.2755 8.81944 23.1817 8.91765 23.1066C9.01587 23.0315 9.12796 22.9766 9.24749 22.945C9.36703 22.9134 9.49163 22.9057 9.61412 22.9225C9.73662 22.9392 9.8546 22.98 9.96126 23.0426L13.7113 25.2082C13.89 25.3114 14.0298 25.4708 14.1087 25.6615C14.1877 25.8523 14.2014 26.0638 14.1479 26.2632C14.0944 26.4625 13.9765 26.6387 13.8126 26.7642C13.6488 26.8898 13.448 26.9578 13.2416 26.9576Z" fill="#F51515"/>
<path d="M9.49249 24.7919C9.24385 24.7919 9.0054 24.6931 8.82958 24.5173C8.65376 24.3415 8.55499 24.103 8.55499 23.8544V17.3594C8.55499 17.1107 8.65376 16.8723 8.82958 16.6965C9.0054 16.5206 9.24385 16.4219 9.49249 16.4219C9.74113 16.4219 9.97959 16.5206 10.1554 16.6965C10.3312 16.8723 10.43 17.1107 10.43 17.3594V23.8544C10.43 24.103 10.3312 24.3415 10.1554 24.5173C9.97959 24.6931 9.74113 24.7919 9.49249 24.7919ZM21.1109 47.5047C20.8623 47.5047 20.6238 47.4059 20.448 47.2301C20.2722 47.0543 20.1734 46.8158 20.1734 46.5672V24.0672C20.1734 23.8185 20.2722 23.5801 20.448 23.4043C20.6238 23.2285 20.8623 23.1297 21.1109 23.1297C21.3596 23.1297 21.598 23.2285 21.7738 23.4043C21.9497 23.5801 22.0484 23.8185 22.0484 24.0672V46.5672C22.0484 46.8158 21.9497 47.0543 21.7738 47.2301C21.598 47.4059 21.3596 47.5047 21.1109 47.5047Z" fill="#F51515"/>
<path d="M21.11 25.0046C20.9457 25.0045 20.7844 24.9612 20.6422 24.8789L1.15626 13.6289C1.04878 13.5678 0.954453 13.4861 0.878701 13.3884C0.80295 13.2906 0.747274 13.1789 0.71488 13.0596C0.682486 12.9403 0.674013 12.8157 0.689949 12.6931C0.705886 12.5705 0.745916 12.4523 0.807736 12.3452C0.869556 12.2381 0.951945 12.1443 1.05016 12.0692C1.14837 11.9941 1.26047 11.9392 1.38 11.9076C1.49953 11.876 1.62413 11.8684 1.74663 11.8851C1.86913 11.9019 1.9871 11.9427 2.09376 12.0052L21.5797 23.2552C21.7585 23.3584 21.8982 23.5178 21.9771 23.7085C22.0561 23.8993 22.0699 24.1108 22.0163 24.3102C21.9628 24.5096 21.845 24.6857 21.6811 24.8113C21.5172 24.9368 21.3165 25.0048 21.11 25.0046Z" fill="#F51515"/>
<path d="M21.1119 25.0046C20.9054 25.0048 20.7047 24.9368 20.5408 24.8113C20.3769 24.6857 20.2591 24.5096 20.2055 24.3102C20.152 24.1108 20.1658 23.8993 20.2447 23.7085C20.3237 23.5178 20.4634 23.3584 20.6422 23.2552L40.1281 12.0052C40.2348 11.9427 40.3527 11.9019 40.4752 11.8851C40.5977 11.8684 40.7223 11.876 40.8419 11.9076C40.9614 11.9392 41.0735 11.9941 41.1717 12.0692C41.2699 12.1443 41.3523 12.2381 41.4141 12.3452C41.476 12.4523 41.516 12.5705 41.5319 12.6931C41.5479 12.8157 41.5394 12.9403 41.507 13.0596C41.4746 13.1789 41.4189 13.2906 41.3432 13.3884C41.2674 13.4861 41.1731 13.5678 41.0656 13.6289L21.5797 24.8789C21.4375 24.9612 21.2761 25.0045 21.1119 25.0046Z" fill="#F51515"/>
</svg>
