<svg width="60" height="58" viewBox="0 0 60 58" fill="none" xmlns="http://www.w3.org/2000/svg">
<path d="M58.3081 28.871C59.6952 26.1269 59.1208 22.8697 56.8789 20.7655L53.625 17.7113C52.8744 17.007 52.4156 16.2122 52.1807 15.2097L51.1627 10.8649C50.4616 7.87121 47.9278 5.74508 44.8577 5.57434L40.4021 5.32648C39.3743 5.2693 38.5118 4.95535 37.6877 4.33859L34.1151 1.66438C31.654 -0.178047 28.3461 -0.178281 25.8846 1.66438L22.312 4.33848C21.4879 4.95535 20.6253 5.2693 19.5976 5.32648L15.142 5.57434C12.072 5.74508 9.53821 7.87121 8.83696 10.8649L7.81895 15.2098C7.58423 16.2121 7.12532 17.007 6.37485 17.7114L3.12079 20.7655C0.878876 22.8696 0.30454 26.1269 1.69157 28.871L3.70485 32.8536C4.16927 33.7723 4.32864 34.6762 4.20642 35.6983L3.67673 40.1294C3.31192 43.1823 4.96567 46.0467 7.792 47.2572L11.8943 49.0141C12.8404 49.4193 13.5436 50.0093 14.1071 50.8707L16.5497 54.6056C18.2324 57.1788 21.3404 58.3101 24.2838 57.4206L28.5555 56.1296C29.5409 55.8317 30.4588 55.8318 31.444 56.1296L35.7157 57.4206C36.3692 57.619 37.0483 57.7201 37.7313 57.7207C39.9992 57.7206 42.15 56.5933 43.4498 54.6056L45.8925 50.8707C46.4559 50.0093 47.159 49.4192 48.1052 49.014L52.2075 47.2571C55.0338 46.0466 56.6877 43.1822 56.3227 40.1293L55.7931 35.6981C55.6708 34.6761 55.8302 33.7721 56.2946 32.8535L58.3081 28.871ZM54.6215 32.0079C53.9914 33.2544 53.7657 34.5343 53.9315 35.9209L54.4612 40.352C54.7306 42.6061 53.5563 44.64 51.4695 45.5338L47.3673 47.2906C46.0835 47.8405 45.0879 48.6759 44.3234 49.8446L41.8808 53.5795C40.6384 55.4793 38.4311 56.2825 36.2582 55.6258L31.9865 54.3349C31.3181 54.1329 30.6591 54.0318 29.9999 54.0318C29.3408 54.0318 28.6815 54.1329 28.0132 54.3349L23.7415 55.6258C21.5686 56.2824 19.3615 55.4793 18.1189 53.5795L15.6764 49.8446C14.9118 48.6758 13.9161 47.8404 12.6324 47.2906L8.53016 45.5338C6.44329 44.6401 5.26907 42.6061 5.53849 40.352L6.06817 35.9209C6.23399 34.5342 6.00829 33.2543 5.37817 32.0077L3.36489 28.0251C2.34091 25.9991 2.7486 23.6863 4.40388 22.1326L7.65794 19.0786C8.67618 18.1229 9.32599 16.9973 9.6445 15.6375L10.6625 11.2925C11.1802 9.08223 12.9794 7.5725 15.2461 7.44652L19.7016 7.19867C21.0961 7.12109 22.3174 6.67648 23.4355 5.83965L27.0081 3.16543C28.8254 1.80512 31.1742 1.805 32.9915 3.16543L36.5641 5.83965C37.6822 6.67648 38.9036 7.12109 40.2979 7.19867L44.7535 7.44652C47.0203 7.57262 48.8193 9.08223 49.3371 11.2926L50.3551 15.6375C50.6736 16.9974 51.3235 18.123 52.3418 19.0786L55.5957 22.1326C57.251 23.6861 57.6587 25.9991 56.6347 28.0251L54.6215 32.0079ZM30 9.83457C19.432 9.83457 10.8344 18.4321 10.8344 29.0001C10.8344 39.5681 19.432 48.1657 30 48.1657C40.5679 48.1657 49.1655 39.5681 49.1655 29.0001C49.1655 18.4321 40.5679 9.83457 30 9.83457ZM30 46.2907C20.4659 46.2907 12.7094 38.5341 12.7094 29.0001C12.7094 19.4661 20.4659 11.7096 30 11.7096C39.534 11.7096 47.2905 19.4661 47.2905 29.0001C47.2905 38.5341 39.534 46.2907 30 46.2907ZM37.9796 20.313H37.9657C37.0289 20.3166 36.1503 20.6848 35.4921 21.3499L27.7177 29.2016L24.507 25.9907C23.844 25.3277 22.9623 24.9625 22.0243 24.9625C21.0862 24.9625 20.2046 25.3277 19.5415 25.9909C18.1726 27.3598 18.1726 29.5873 19.5415 30.9562L25.2439 36.6587C25.9284 37.343 26.8275 37.6854 27.7266 37.6854C28.6258 37.6854 29.525 37.3432 30.2095 36.6587C32.3715 34.4966 34.5529 32.2838 36.6627 30.1441C37.9298 28.8577 39.1986 27.5729 40.4689 26.2897C41.8285 24.9177 41.8214 22.6944 40.453 21.3336C39.791 20.675 38.9131 20.313 37.9796 20.313ZM39.1371 24.9698C37.8656 26.2542 36.5957 27.5402 35.3273 28.8276C33.22 30.9651 31.0409 33.1754 28.8836 35.3327C28.2457 35.9707 27.2075 35.9707 26.5698 35.3327L20.8674 29.6302C20.2296 28.9924 20.2296 27.9543 20.8674 27.3164C21.019 27.164 21.1993 27.0432 21.3979 26.961C21.5965 26.8787 21.8094 26.8367 22.0243 26.8373C22.4613 26.8373 22.8723 27.0075 23.1812 27.3164L27.0581 31.1934C27.2339 31.3692 27.4724 31.468 27.721 31.468H27.7234C27.8469 31.4677 27.9691 31.443 28.083 31.3953C28.197 31.3476 28.3003 31.2779 28.3872 31.1901L36.8245 22.6688C36.9745 22.5166 37.1533 22.3956 37.3504 22.3131C37.5476 22.2305 37.7592 22.1879 37.9729 22.1878H37.9795C38.4141 22.1878 38.8228 22.3563 39.131 22.6627C39.7674 23.296 39.7702 24.3308 39.1371 24.9698Z" fill="#F51515"/>
</svg>
