<svg width="60" height="60" viewBox="0 0 60 60" fill="none" xmlns="http://www.w3.org/2000/svg">
<path d="M9.67743 15.3057V17.4192H11.6129V15.4838H13.5484V12.5805C13.5484 10.9799 12.2458 9.6773 10.6452 9.6773C10.111 9.6773 9.67743 9.24279 9.67743 8.70956V7.74182H10.6452C11.1794 7.74182 11.6129 8.17633 11.6129 8.70956V9.6773H13.5484V8.70956C13.5465 8.11111 13.3594 7.52791 13.0129 7.04C12.6664 6.55208 12.1773 6.18335 11.6129 5.9844V3.87085H9.67743V5.80633H7.74194V8.70956C7.74194 10.3102 9.04452 11.6128 10.6452 11.6128C11.1794 11.6128 11.6129 12.0473 11.6129 12.5805V13.5483H10.6452C10.111 13.5483 9.67743 13.1138 9.67743 12.5805V11.6128H7.74194V12.5805C7.74194 13.8405 8.55388 14.905 9.67743 15.3057Z" fill="#F51515"/>
<path d="M10.6452 21.2903C16.5145 21.2903 21.2903 16.5145 21.2903 10.6452C21.2903 4.77581 16.5145 0 10.6452 0C4.77581 0 0 4.77581 0 10.6452C0 16.5145 4.77581 21.2903 10.6452 21.2903ZM10.6452 1.93548C15.4481 1.93548 19.3548 5.84323 19.3548 10.6452C19.3548 15.4471 15.4481 19.3548 10.6452 19.3548C5.84226 19.3548 1.93548 15.4471 1.93548 10.6452C1.93548 5.84323 5.84226 1.93548 10.6452 1.93548ZM34.8387 15.4839H48.3871V9.67742H34.8387V15.4839ZM36.7742 11.6129H46.4516V13.5484H36.7742V11.6129ZM34.8387 30.9677H48.3871V17.4194H34.8387V30.9677ZM36.7742 27.0968H38.7097V29.0323H36.7742V27.0968ZM42.5806 23.2258V25.1613H40.6452V23.2258H42.5806ZM40.6452 21.2903V19.3548H42.5806V21.2903H40.6452ZM42.5806 29.0323H40.6452V27.0968H42.5806V29.0323ZM38.7097 25.1613H36.7742V23.2258H38.7097V25.1613ZM44.5161 29.0323V23.2258H46.4516V29.0323H44.5161ZM46.4516 21.2903H44.5161V19.3548H46.4516V21.2903ZM38.7097 19.3548V21.2903H36.7742V19.3548H38.7097ZM32.9032 38.7097H34.8387V40.6452H32.9032V38.7097ZM36.7742 38.7097H38.7097V40.6452H36.7742V38.7097ZM40.6452 38.7097H42.5806V40.6452H40.6452V38.7097ZM44.5161 38.7097H46.4516V40.6452H44.5161V38.7097ZM48.3871 38.7097H50.3226V40.6452H48.3871V38.7097ZM12.5806 50.3226C10.98 50.3226 9.67742 51.6252 9.67742 53.2258C9.67742 54.8265 10.98 56.129 12.5806 56.129C14.1813 56.129 15.4839 54.8265 15.4839 53.2258C15.4839 51.6252 14.1813 50.3226 12.5806 50.3226ZM12.5806 54.1935C12.324 54.1935 12.0778 54.0916 11.8963 53.9101C11.7149 53.7286 11.6129 53.4825 11.6129 53.2258C11.6129 52.9691 11.7149 52.723 11.8963 52.5415C12.0778 52.36 12.324 52.2581 12.5806 52.2581C12.8373 52.2581 13.0835 52.36 13.2649 52.5415C13.4464 52.723 13.5484 52.9691 13.5484 53.2258C13.5484 53.4825 13.4464 53.7286 13.2649 53.9101C13.0835 54.0916 12.8373 54.1935 12.5806 54.1935ZM49.3548 50.3226C47.7542 50.3226 46.4516 51.6252 46.4516 53.2258C46.4516 54.8265 47.7542 56.129 49.3548 56.129C50.9555 56.129 52.2581 54.8265 52.2581 53.2258C52.2581 51.6252 50.9555 50.3226 49.3548 50.3226ZM49.3548 54.1935C49.0982 54.1935 48.852 54.0916 48.6705 53.9101C48.4891 53.7286 48.3871 53.4825 48.3871 53.2258C48.3871 52.9691 48.4891 52.723 48.6705 52.5415C48.852 52.36 49.0982 52.2581 49.3548 52.2581C49.6115 52.2581 49.8576 52.36 50.0391 52.5415C50.2206 52.723 50.3226 52.9691 50.3226 53.2258C50.3226 53.4825 50.2206 53.7286 50.0391 53.9101C49.8576 54.0916 49.6115 54.1935 49.3548 54.1935Z" fill="#F51515"/>
<path d="M58.0645 21.2903H52.2581V7.74188C52.2581 6.67446 51.39 5.8064 50.3226 5.8064H32.9032C31.8358 5.8064 30.9677 6.67446 30.9677 7.74188V21.2903H23.2258C22.1584 21.2903 21.2903 22.1583 21.2903 23.2258V25.1612H7.74194C7.29152 25.1621 6.84745 25.2675 6.44462 25.469C6.04179 25.6705 5.69117 25.9626 5.42032 26.3225L0.581613 32.7745C0.205299 33.2774 0.00132063 33.8883 0 34.5164L0 54.1935C0 55.2609 0.868064 56.129 1.93548 56.129H6.46935C7.55903 58.4138 9.88548 59.9999 12.5806 59.9999C15.2758 59.9999 17.6013 58.4138 18.6919 56.129H43.2435C44.3332 58.4138 46.6597 59.9999 49.3548 59.9999C52.05 59.9999 54.3755 58.4138 55.4661 56.129H58.0645C59.1319 56.129 60 55.2609 60 54.1935V23.2258C60 22.1583 59.1319 21.2903 58.0645 21.2903ZM32.9032 7.74188H50.3226L50.3245 32.9032H32.9032V7.74188ZM30.9677 23.2258V32.9032C30.9677 33.9706 31.8358 34.8387 32.9032 34.8387H50.3226C51.39 34.8387 52.2581 33.9706 52.2581 32.9032V23.2258H58.0645V50.3225H55.4661C54.3764 48.0377 52.05 46.4516 49.3548 46.4516C46.6597 46.4516 44.3342 48.0377 43.2435 50.3225H23.2258V23.2258H30.9677ZM6.96871 27.4828C7.14968 27.2409 7.43903 27.0967 7.74194 27.0967H21.2903V29.0322H5.80742L6.96871 27.4828ZM2.12903 33.9348L4.35484 30.9677H21.2903V50.3225H19.3548V32.9032H8.70968C6.04161 32.9032 3.87097 35.0738 3.87097 37.7419V50.3225H1.93548V34.5164C1.93548 34.3083 2.00419 34.1022 2.12903 33.9348ZM17.4194 38.7096H9.49935C9.30041 38.1452 8.93168 37.6562 8.44376 37.3096C7.95584 36.9631 7.37264 36.7761 6.77419 36.7741H5.98452C6.18347 36.2097 6.5522 35.7207 7.04011 35.3742C7.52803 35.0276 8.11123 34.8406 8.70968 34.8387H17.4194V38.7096ZM5.80645 38.7096H6.77419C7.03085 38.7096 7.277 38.8116 7.45849 38.9931C7.63998 39.1746 7.74194 39.4207 7.74194 39.6774C7.74194 39.934 7.63998 40.1802 7.45849 40.3617C7.277 40.5431 7.03085 40.6451 6.77419 40.6451H5.80645V38.7096ZM5.80645 42.5806H6.77419C7.37264 42.5787 7.95584 42.3916 8.44376 42.0451C8.93168 41.6985 9.30041 41.2095 9.49935 40.6451H17.4194V42.5806H15.4839V44.5161H17.4194V48.4945C16.7903 47.8478 16.038 47.3338 15.2069 46.9829C14.3758 46.632 13.4828 46.4513 12.5806 46.4516C9.88548 46.4516 7.56 48.0377 6.46935 50.3225H5.80645V42.5806ZM1.93548 54.1935V52.258H5.88387C5.83839 52.5754 5.80645 52.8967 5.80645 53.2258C5.80645 53.5548 5.83839 53.8761 5.88387 54.1935H1.93548ZM12.5806 58.0645C9.91258 58.0645 7.74194 55.8938 7.74194 53.2258C7.74194 50.5577 9.91258 48.387 12.5806 48.387C15.2487 48.387 17.4194 50.5577 17.4194 53.2258C17.4194 55.8938 15.2487 58.0645 12.5806 58.0645ZM19.2774 54.1935C19.3229 53.8761 19.3548 53.5548 19.3548 53.2258C19.3548 52.8967 19.3229 52.5754 19.2774 52.258H42.6581C42.6126 52.5754 42.5806 52.8967 42.5806 53.2258C42.5806 53.5548 42.6126 53.8761 42.6581 54.1935H19.2774ZM49.3548 58.0645C46.6868 58.0645 44.5161 55.8938 44.5161 53.2258C44.5161 50.5577 46.6868 48.387 49.3548 48.387C52.0229 48.387 54.1935 50.5577 54.1935 53.2258C54.1935 55.8938 52.0229 58.0645 49.3548 58.0645ZM56.0516 54.1935C56.0971 53.8761 56.129 53.5548 56.129 53.2258C56.129 52.8967 56.0971 52.5754 56.0516 52.258H58.0645V54.1935H56.0516Z" fill="#F51515"/>
</svg>
