<svg width="53" height="60" viewBox="0 0 53 60" fill="none" xmlns="http://www.w3.org/2000/svg">
<path d="M47.1607 5C47.1607 2.20025 44.9559 0 42.1503 0H5.07306C2.26747 0 0.0626221 2.20025 0.0626221 5V13H8.07932V55C8.07932 57.7998 10.2842 60 13.0898 60H47.1607C49.9663 60 52.1712 57.7998 52.1712 55V50H47.1607V5ZM8.07932 11H2.0668V5C2.0668 3.29975 3.36926 2 5.07306 2C6.77686 2 8.07932 3.29975 8.07932 5V11ZM10.0835 55V5C10.0835 3.9 9.68266 2.9 9.08141 2H42.1503C43.8541 2 45.1566 3.29975 45.1566 5V50H16.096V55C16.096 56.7003 14.7936 58 13.0898 58C11.386 58 10.0835 56.7003 10.0835 55ZM50.167 52V55C50.167 56.7003 48.8645 58 47.1607 58H17.0981C17.7998 57.1 18.1002 56.1 18.1002 55V52H50.167Z" fill="#F51515"/>
<path d="M35.1357 32H43.1524V34H35.1357V32ZM12.0876 32H33.1315V34H12.0876V32ZM23.1106 36H43.1524V38H23.1106V36ZM12.0876 36H21.1064V38H12.0876V36ZM30.1252 44H43.1524V46H30.1252V44ZM12.0876 44H28.121V46H12.0876V44ZM25.9162 20.4L27.119 21.2003L28.3217 20.3999C31.9287 18 34.1336 13.9 34.1336 9.60013V6.29975L27.119 4L20.1043 6.29975V9.60013C20.1043 13.8999 22.3092 18.0001 25.9162 20.4ZM22.1085 7.70013L27.119 6L32.1294 7.70025V9.6C32.1294 13.2996 30.3259 16.7 27.2192 18.7996H27.119L27.0188 18.7001C23.912 16.7001 22.1085 13.2001 22.1085 9.49988V7.70013Z" fill="#F51515"/>
<path d="M30.1252 10.0999L28.121 9.8999C27.9204 11.5999 27.0188 13.2002 25.6158 14.2002L26.7181 15.8998C28.6221 14.4999 29.9246 12.3997 30.1252 10.0999ZM18.1002 39.9999H43.1524V41.9999H18.1002V39.9999ZM12.0876 39.9999H16.096V41.9999H12.0876V39.9999ZM23.1106 27.9999H43.1524V29.9999H23.1106V27.9999ZM12.0876 27.9999H21.1064V29.9999H12.0876V27.9999ZM20.1043 22.9999H34.1336V24.9999H20.1043V22.9999Z" fill="#F51515"/>
</svg>
