<svg width="56" height="56" viewBox="0 0 56 56" fill="none" xmlns="http://www.w3.org/2000/svg">
<path d="M24.2996 0.336081C24.1228 0.199053 23.899 0.137718 23.6771 0.16553C23.4552 0.193343 23.2534 0.308033 23.116 0.48444L17.4627 7.75229C16.1003 7.75323 13.3182 7.75229 11.9687 7.75229C10.8659 7.75686 10.8648 9.43522 11.9687 9.43979H13.7898L17.2248 21.9234C17.3725 22.4574 17.6909 22.9284 18.1315 23.2643C18.5721 23.6002 19.1106 23.7826 19.6647 23.7835H36.8273C37.3812 23.7826 37.9197 23.6003 38.3602 23.2645C38.8008 22.9287 39.1193 22.4578 39.267 21.9239L42.7021 9.43979H44.0312C45.1343 9.4351 45.135 7.75698 44.0312 7.75229H39.3483L32.8589 0.442018C32.1207 -0.379232 30.8683 0.733698 31.5967 1.56268L37.0912 7.75229H19.5998L24.447 1.52014C24.5845 1.34357 24.6461 1.11963 24.6185 0.897581C24.5909 0.675528 24.4761 0.473552 24.2996 0.336081ZM40.9519 9.43979L37.6405 21.4768C37.5911 21.6546 37.4849 21.8114 37.338 21.9232C37.1912 22.035 37.0118 22.0957 36.8273 22.096H19.6647C19.4801 22.0957 19.3007 22.0349 19.1538 21.9231C19.007 21.8112 18.9008 21.6544 18.8514 21.4765L15.5398 9.43979H40.9519ZM27.1563 18.721V12.8148C27.1563 12.591 27.2451 12.3764 27.4034 12.2182C27.5616 12.0599 27.7762 11.971 28 11.971C28.2238 11.971 28.4384 12.0599 28.5966 12.2182C28.7549 12.3764 28.8438 12.591 28.8438 12.8148V18.721C28.8438 18.9448 28.7549 19.1594 28.5966 19.3177C28.4384 19.4759 28.2238 19.5648 28 19.5648C27.7762 19.5648 27.5616 19.4759 27.4034 19.3177C27.2451 19.1594 27.1563 18.9448 27.1563 18.721ZM32.2517 18.4867L33.9743 12.5405C34.0366 12.3254 34.1818 12.144 34.3779 12.0359C34.574 11.9279 34.8049 11.9023 35.0199 11.9645C35.235 12.0268 35.4164 12.172 35.5245 12.3681C35.6325 12.5642 35.6581 12.7951 35.5959 13.0101L33.8738 18.9564C33.8115 19.1714 33.6663 19.3529 33.4702 19.4609C33.2741 19.5689 33.0432 19.5946 32.8281 19.5323C32.6131 19.47 32.4316 19.3249 32.3236 19.1288C32.2156 18.9327 32.1899 18.7017 32.2521 18.4867H32.2517ZM20.4046 13.0097C20.3423 12.7946 20.368 12.5637 20.476 12.3676C20.584 12.1715 20.7655 12.0264 20.9805 11.9641C21.1956 11.9018 21.4265 11.9275 21.6226 12.0355C21.8187 12.1435 21.9638 12.325 22.0261 12.54L23.7488 18.4862C24.0503 19.5452 22.4434 20.0167 22.1271 18.9559L20.4046 13.0097ZM52.6546 11.971H45.7188C45.495 11.971 45.2804 12.0599 45.1221 12.2182C44.9639 12.3764 44.875 12.591 44.875 12.8148C44.875 13.0386 44.9639 13.2532 45.1221 13.4114C45.2804 13.5696 45.495 13.6585 45.7188 13.6585H52.6541C53.0523 13.659 53.4341 13.8173 53.7157 14.0989C53.9973 14.3804 54.1557 14.7621 54.1563 15.1603V42.346H1.84375V15.1603C1.84428 14.7621 2.00272 14.3804 2.28431 14.0989C2.56591 13.8173 2.94767 13.659 3.34586 13.6585H10.2813C11.3841 13.6479 11.3935 11.9859 10.2813 11.971H3.34586C2.50029 11.972 1.68963 12.3084 1.09169 12.9062C0.493742 13.5041 0.157335 14.3147 0.15625 15.1603V48.2523C0.156994 48.9234 0.423918 49.5668 0.898458 50.0413C1.373 50.5159 2.0164 50.7828 2.6875 50.7835H24.1034L22.4159 54.1585H20.4063C19.3076 54.1624 19.2991 55.8414 20.4063 55.846H35.5937C36.6924 55.8423 36.7009 54.1632 35.5937 54.1585H33.5841L31.8966 50.7835H53.3125C53.9836 50.7828 54.627 50.5159 55.1015 50.0413C55.5761 49.5668 55.843 48.9234 55.8438 48.2523V15.1603C55.8427 14.3147 55.5063 13.5041 54.9083 12.9062C54.3104 12.3084 53.4997 11.972 52.6541 11.971H52.6546ZM24.3033 54.1585L25.9908 50.7835H30.0104L31.6979 54.1585H24.3033ZM54.1567 48.2523C54.1565 48.476 54.0675 48.6905 53.9093 48.8487C53.7512 49.0069 53.5367 49.0958 53.313 49.096H2.6875C2.46379 49.0958 2.24931 49.0069 2.09112 48.8487C1.93293 48.6905 1.84397 48.476 1.84375 48.2523V44.0335H54.1563L54.1567 48.2523ZM51.1445 33.7178C51.1309 33.5602 51.0734 33.4097 50.9784 33.2833C50.8834 33.1569 50.7548 33.0598 50.6072 33.0029L41.7726 29.6045C41.1203 29.3299 40.4049 30.0401 40.6817 30.6943L44.0801 39.5293C44.3044 40.1721 45.2584 40.2579 45.5918 39.6608L47.0745 37.1891L49.7076 39.8243C49.8665 39.9792 50.08 40.0652 50.3019 40.0638C50.5238 40.0624 50.7362 39.9736 50.8931 39.8167C51.05 39.6598 51.1388 39.4474 51.1403 39.2255C51.1417 39.0036 51.0557 38.7901 50.9008 38.6312L48.2668 35.9972L50.7384 34.5142C50.8739 34.4329 50.9839 34.3151 51.0558 34.1743C51.1276 34.0334 51.1583 33.8752 51.1445 33.7178ZM46.4718 35.1062C46.3532 35.1775 46.2538 35.2768 46.1825 35.3954L45.034 37.3099L42.9387 31.8619L48.3868 33.9572L46.4718 35.1062ZM38.1537 28.2705L36.795 26.9112C36.0176 26.1272 37.2052 24.9417 37.9881 25.7181L39.3468 27.0774C40.1242 27.8612 38.9368 29.047 38.1538 28.2705H38.1537ZM46.143 26.9112L44.7843 28.2705C44.0008 29.0476 42.8145 27.8604 43.5911 27.0774L44.9499 25.7181C45.7336 24.9415 46.9197 26.1283 46.1431 26.9114L46.143 26.9112ZM39.3469 33.7071L37.9882 35.0665C37.2044 35.8437 36.0184 34.6563 36.7952 33.8734L38.1538 32.514C38.9379 31.7373 40.1234 32.9245 39.3469 33.7071ZM8.59375 39.8148H15.3438C16.0149 39.814 16.6583 39.5471 17.1328 39.0726C17.6073 38.598 17.8743 37.9546 17.875 37.2835V28.0023H18.7188C19.818 27.9983 19.8255 26.3196 18.7188 26.3148H5.21875C4.11953 26.3187 4.11203 27.9976 5.21875 28.0023H6.0625V37.2835C6.06324 37.9546 6.33017 38.598 6.80471 39.0726C7.27925 39.5471 7.92265 39.814 8.59375 39.8148ZM7.75 28.0023H11.125V29.6898C11.125 29.9136 11.2139 30.1282 11.3721 30.2864C11.5304 30.4446 11.745 30.5335 11.9687 30.5335C12.1925 30.5335 12.4071 30.4446 12.5654 30.2864C12.7236 30.1282 12.8125 29.9136 12.8125 29.6898V28.0023H16.1875V37.2835C16.1873 37.5072 16.0983 37.7217 15.9401 37.8799C15.7819 38.0381 15.5675 38.1271 15.3438 38.1273H8.59375C8.37004 38.1271 8.15555 38.0381 7.99737 37.8799C7.83918 37.7217 7.75022 37.5072 7.75 37.2835V28.0023ZM28.8438 26.3148H27.1563C26.7089 26.3153 26.2799 26.4933 25.9636 26.8096C25.6472 27.126 25.4693 27.5549 25.4688 28.0023V28.846C24.863 28.8155 24.1445 28.8173 24.0285 29.5761L23.1196 36.2585C22.8297 38.1589 24.5513 39.862 26.4493 39.8148H29.5507C31.4501 39.8611 33.1709 38.1595 32.8804 36.2556L31.9716 29.5759C31.8544 28.8206 31.1416 28.8131 30.5313 28.8458V28.0021C30.5307 27.5547 30.3527 27.1259 30.0363 26.8095C29.72 26.4932 29.2911 26.3153 28.8438 26.3148ZM27.1563 28.0023L28.8438 28.0011V28.846H27.1563V28.0023ZM31.2078 36.4802C31.3367 37.3986 30.4578 38.1494 29.5507 38.1273H26.4493C25.5446 38.1507 24.6629 37.3984 24.7922 36.483L25.6014 30.5335H30.3986L31.2078 36.4802ZM24.0259 47.1639C23.8691 47.0039 23.7812 46.7888 23.7812 46.5648C23.7812 46.3408 23.8691 46.1257 24.0259 45.9657C24.1869 45.8109 24.4016 45.7244 24.625 45.7244C24.8484 45.7244 25.0631 45.8109 25.2241 45.9657C25.5202 46.2782 25.5769 46.7205 25.2241 47.1639C25.0638 47.32 24.8488 47.4074 24.625 47.4074C24.4012 47.4074 24.1862 47.32 24.0259 47.1639ZM27.4009 47.1639C27.1142 46.8623 27.0408 46.4139 27.4009 45.9657C27.5618 45.8105 27.7765 45.7238 28 45.7238C28.2235 45.7238 28.4382 45.8105 28.5991 45.9657C28.967 46.4235 28.8835 46.8635 28.5991 47.1639C28.293 47.4532 27.8518 47.5262 27.4009 47.1639ZM30.7759 45.9657C30.9361 45.8093 31.1511 45.7217 31.375 45.7217C31.5989 45.7217 31.8139 45.8093 31.9741 45.9657C32.275 46.2995 32.3283 46.7189 31.9741 47.1639C31.8152 47.3227 31.5997 47.412 31.375 47.412C31.1503 47.412 30.9348 47.3227 30.7759 47.1639C30.6171 47.005 30.5278 46.7895 30.5278 46.5648C30.5278 46.3401 30.6171 46.1246 30.7759 45.9657Z" fill="#F51515"/>
</svg>
