<?xml version="1.0" encoding="utf-8"?><svg viewBox="0 0 60 61" xmlns="http://www.w3.org/2000/svg"
   xmlns:xlink="http://www.w3.org/1999/xlink">
   <style>
      :root>svg {
         display: none
      }

      :root>svg:target {
         display: block
      }
   </style><svg fill="currentColor" viewBox="0 0 40 40" id="arrow" xmlns="http://www.w3.org/2000/svg">
      <path d="M40 21.053A21.052 21.052 0 0 1 18.947 0h2.106A18.947 18.947 0 0 0 40 18.947v2.106Z" fill="currentColor" />
      <path d="M40 18.947A21.052 21.052 0 0 0 18.947 40h2.106A18.947 18.947 0 0 1 40 21.053v-2.106Z" fill="currentColor" />
      <path d="M0 18.947h40v2.106H0v-2.106Z" fill="currentColor" />
   </svg><svg fill="currentColor" viewBox="0 0 56 56" id="benefits-1" xmlns="http://www.w3.org/2000/svg">
      <path
         d="M24.3.336a.845.845 0 0 0-1.184.148l-5.653 7.268h-5.494c-1.103.005-1.104 1.683 0 1.688h1.82l3.436 12.483a2.536 2.536 0 0 0 2.44 1.86h17.162a2.535 2.535 0 0 0 2.44-1.86L42.702 9.44h1.33c1.102-.005 1.103-1.683 0-1.688h-4.684l-6.49-7.31c-.737-.821-1.99.292-1.261 1.12l5.494 6.19H19.6l4.847-6.232A.844.844 0 0 0 24.3.336ZM40.952 9.44 37.64 21.477a.845.845 0 0 1-.814.619H19.665a.846.846 0 0 1-.814-.62L15.54 9.44h25.412ZM27.156 18.72v-5.906a.843.843 0 1 1 1.688 0v5.906a.844.844 0 0 1-1.688 0Zm5.096-.234 1.722-5.946a.844.844 0 0 1 1.622.47l-1.722 5.945a.844.844 0 0 1-1.622-.47ZM20.405 13.01a.844.844 0 1 1 1.621-.47l1.723 5.946c.301 1.06-1.306 1.53-1.622.47l-1.722-5.946Zm32.25-1.039h-6.936a.844.844 0 0 0 0 1.688h6.935a1.504 1.504 0 0 1 1.502 1.501v27.186H1.844V15.16a1.504 1.504 0 0 1 1.502-1.502h6.935c1.103-.01 1.112-1.672 0-1.687H3.346a3.194 3.194 0 0 0-3.19 3.19v33.091a2.534 2.534 0 0 0 2.531 2.531h21.416l-1.687 3.375h-2.01c-1.098.004-1.107 1.683 0 1.688h15.188c1.098-.004 1.107-1.683 0-1.688h-2.01l-1.687-3.375h21.416a2.533 2.533 0 0 0 2.53-2.53V15.16a3.193 3.193 0 0 0-3.189-3.189ZM24.303 54.159l1.688-3.376h4.02l1.687 3.375h-7.395Zm29.854-5.907a.845.845 0 0 1-.844.844H2.687a.844.844 0 0 1-.843-.844v-4.219h52.312v4.22Zm-3.012-14.534a.844.844 0 0 0-.538-.715l-8.834-3.398c-.653-.275-1.368.435-1.091 1.09l3.398 8.834c.224.643 1.178.729 1.512.132l1.483-2.472 2.633 2.635a.844.844 0 0 0 1.193-1.193l-2.634-2.634 2.471-1.483a.844.844 0 0 0 .407-.796Zm-4.673 1.388a.846.846 0 0 0-.29.29l-1.148 1.914-2.095-5.448 5.448 2.095-1.915 1.15Zm-8.318-6.836-1.359-1.359c-.777-.784.41-1.97 1.193-1.193l1.359 1.36c.777.783-.41 1.969-1.193 1.192Zm7.989-1.359-1.359 1.36c-.783.777-1.97-.41-1.193-1.194l1.359-1.359c.784-.776 1.97.41 1.193 1.193Zm-6.796 6.796-1.359 1.36c-.784.777-1.97-.41-1.193-1.194l1.359-1.359c.784-.777 1.97.41 1.193 1.193ZM8.594 39.815h6.75a2.534 2.534 0 0 0 2.531-2.532v-9.28h.844c1.099-.005 1.107-1.683 0-1.688h-13.5c-1.1.004-1.107 1.683 0 1.687h.843v9.281a2.534 2.534 0 0 0 2.532 2.532ZM7.75 28.002h3.375v1.688a.844.844 0 1 0 1.688 0v-1.688h3.374v9.281a.845.845 0 0 1-.843.844h-6.75a.844.844 0 0 1-.844-.844v-9.28Zm21.094-1.687h-1.688a1.69 1.69 0 0 0-1.687 1.687v.844c-.606-.03-1.325-.029-1.44.73l-.91 6.682c-.29 1.9 1.432 3.604 3.33 3.557h3.102c1.9.046 3.62-1.655 3.33-3.56l-.91-6.68c-.117-.754-.83-.762-1.44-.73v-.843a1.69 1.69 0 0 0-1.687-1.687Zm-1.688 1.687h1.688v.844h-1.688v-.844Zm4.052 8.478c.129.919-.75 1.67-1.657 1.647h-3.102c-.904.024-1.786-.729-1.657-1.644l.81-5.95h4.797l.809 5.947Zm-7.182 10.684a.856.856 0 0 1 0-1.198.864.864 0 0 1 1.198 0c.296.312.353.755 0 1.198a.859.859 0 0 1-1.198 0Zm3.375 0c-.287-.302-.36-.75 0-1.198a.863.863 0 0 1 1.198 0c.368.457.285.898 0 1.198-.306.29-.747.362-1.198 0Zm3.375-1.198a.858.858 0 0 1 1.198 0c.301.334.354.753 0 1.198a.848.848 0 0 1-1.198-1.198Z"
         fill="currentColor" />
   </svg><svg fill="currentColor" viewBox="0 0 60 58" id="benefits-2" xmlns="http://www.w3.org/2000/svg">
      <path
         d="M58.308 28.871a6.819 6.819 0 0 0-1.43-8.105l-3.253-3.055a4.78 4.78 0 0 1-1.444-2.501l-1.018-4.345a6.818 6.818 0 0 0-6.305-5.29l-4.456-.249a4.782 4.782 0 0 1-2.714-.987l-3.573-2.675a6.818 6.818 0 0 0-8.23 0l-3.573 2.674a4.782 4.782 0 0 1-2.714.988l-4.456.248a6.819 6.819 0 0 0-6.305 5.29L7.819 15.21a4.781 4.781 0 0 1-1.444 2.501L3.12 20.766a6.819 6.819 0 0 0-1.43 8.105l2.014 3.983a4.78 4.78 0 0 1 .501 2.844l-.53 4.431a6.819 6.819 0 0 0 4.116 7.128l4.102 1.757c.946.405 1.65.995 2.213 1.857l2.443 3.735a6.818 6.818 0 0 0 7.734 2.815l4.271-1.291a4.78 4.78 0 0 1 2.889 0l4.272 1.29a6.96 6.96 0 0 0 2.015.3 6.814 6.814 0 0 0 5.719-3.114l2.442-3.735a4.782 4.782 0 0 1 2.213-1.857l4.103-1.757a6.819 6.819 0 0 0 4.115-7.128l-.53-4.43a4.78 4.78 0 0 1 .502-2.846l2.013-3.982Zm-3.687 3.137a6.663 6.663 0 0 0-.69 3.913l.53 4.431c.27 2.254-.905 4.288-2.992 5.182l-4.102 1.757a6.666 6.666 0 0 0-3.044 2.554l-2.442 3.735c-1.243 1.9-3.45 2.703-5.623 2.046l-4.272-1.291A6.824 6.824 0 0 0 30 54.032c-.66 0-1.319.1-1.987.303l-4.272 1.29c-2.172.657-4.38-.146-5.622-2.045l-2.443-3.735a6.666 6.666 0 0 0-3.044-2.554L8.53 45.534c-2.087-.894-3.26-2.928-2.992-5.182l.53-4.431a6.664 6.664 0 0 0-.69-3.913l-2.013-3.983C2.34 26 2.749 23.686 4.404 22.133l3.254-3.054a6.664 6.664 0 0 0 1.987-3.442l1.018-4.345c.517-2.21 2.316-3.72 4.583-3.845l4.456-.248a6.665 6.665 0 0 0 3.733-1.36l3.573-2.674c1.817-1.36 4.166-1.36 5.984 0l3.572 2.675a6.665 6.665 0 0 0 3.734 1.359l4.456.248c2.266.126 4.065 1.635 4.583 3.846l1.018 4.345a6.663 6.663 0 0 0 1.987 3.44l3.254 3.055c1.655 1.553 2.063 3.866 1.039 5.892l-2.014 3.983ZM30 9.835c-10.568 0-19.166 8.597-19.166 19.165S19.432 48.166 30 48.166 49.166 39.568 49.166 29 40.568 9.835 30 9.835Zm0 36.456c-9.534 0-17.29-7.757-17.29-17.29 0-9.535 7.756-17.291 17.29-17.291 9.534 0 17.29 7.756 17.29 17.29 0 9.534-7.756 17.29-17.29 17.29Zm7.98-25.978h-.014a3.475 3.475 0 0 0-2.474 1.037l-7.774 7.852-3.211-3.211a3.488 3.488 0 0 0-2.483-1.029c-.938 0-1.82.366-2.483 1.029a3.515 3.515 0 0 0 0 4.965l5.703 5.703a3.5 3.5 0 0 0 2.483 1.026 3.5 3.5 0 0 0 2.482-1.026c2.162-2.162 4.344-4.375 6.454-6.515a2161.4 2161.4 0 0 1 3.806-3.854 3.513 3.513 0 0 0-.016-4.956 3.484 3.484 0 0 0-2.473-1.021Zm1.157 4.657a2271.61 2271.61 0 0 0-3.81 3.858 1294.467 1294.467 0 0 1-6.443 6.505 1.638 1.638 0 0 1-2.314 0l-5.703-5.703a1.638 1.638 0 0 1 1.157-2.793c.437 0 .848.17 1.157.48l3.877 3.876a.938.938 0 0 0 .663.275h.002a.937.937 0 0 0 .664-.278l8.438-8.521a1.613 1.613 0 0 1 1.148-.481h.007c.434 0 .843.168 1.151.475.636.633.64 1.668.006 2.307Z"
         fill="currentColor" />
   </svg><svg fill="currentColor" viewBox="0 0 54 60" id="benefits-3" xmlns="http://www.w3.org/2000/svg">
      <path
         d="M1.219 60.004a.937.937 0 0 1-.938-.938v-7.205a16.633 16.633 0 0 1 4.844-11.478 16.856 16.856 0 0 1 12.108-4.75.937.937 0 0 1-.029 1.874h-.394a.925.925 0 0 1-.1-.005 14.914 14.914 0 0 0-10.265 4.212 14.971 14.971 0 0 0-4.289 10.159v7.193a.937.937 0 0 1-.937.938ZM36.792 41a.935.935 0 0 1-.589-.209 14.862 14.862 0 0 0-9.325-3.282l-.401-.002a.938.938 0 0 1-.93-.945.906.906 0 0 1 .944-.93l.388.001a16.744 16.744 0 0 1 10.505 3.7.938.938 0 0 1-.59 1.666h-.002Z"
         fill="currentColor" />
      <path
         d="M21.827 41.242a5.816 5.816 0 0 1-5.585-4.65.96.96 0 0 1-.023-.211v-5.273a.938.938 0 1 1 1.875 0v5.16a3.993 3.993 0 0 0 3.738 3.099h.016a3.949 3.949 0 0 0 3.746-3.099v-5.16a.938.938 0 1 1 1.875 0v5.273c0 .07-.008.141-.024.21a5.824 5.824 0 0 1-5.592 4.65h-.026Z"
         fill="currentColor" />
      <path
         d="M21.844 33.504c-6.204 0-11.25-6.438-11.25-14.353 0-.792.05-1.584.153-2.37a.938.938 0 0 1 1.859.242 16.585 16.585 0 0 0-.137 2.128c0 6.881 4.205 12.478 9.375 12.478s9.375-5.597 9.375-12.478c0-.711-.046-1.422-.137-2.128a.94.94 0 0 1 1.175-1.026.938.938 0 0 1 .686.785c.1.786.15 1.578.15 2.37 0 7.914-5.046 14.352-11.25 14.352Z"
         fill="currentColor" />
      <path
         d="M26.363 28.117H17.33a1.679 1.679 0 0 1-1.437-.83 1.941 1.941 0 0 1-.06-1.891l1.024-1.966a1.694 1.694 0 0 1 1.495-.938h6.872a1.68 1.68 0 0 1 1.457.867l1.136 1.964a1.934 1.934 0 0 1 .001 1.928 1.679 1.679 0 0 1-1.456.866Zm-8.857-1.875h8.647l-1.055-1.875h-6.615l-.977 1.875ZM32.156 47.8H11.531a.938.938 0 0 1-.937-.937v-9.394a.937.937 0 1 1 1.875 0v8.456h18.75V37.47a.937.937 0 1 1 1.875 0v9.394a.938.938 0 0 1-.938.937ZM6.844 59.998a.938.938 0 0 1-.938-.938V40.096a.937.937 0 0 1 1.875 0V59.06a.937.937 0 0 1-.937.938ZM34.03 14.055a.938.938 0 0 1-.937-.938c0-4.494-3.566-8.348-8.67-9.374a.938.938 0 1 1 .37-1.837c5.99 1.202 10.175 5.812 10.175 11.211a.938.938 0 0 1-.938.938Zm-24.375 0a.937.937 0 0 1-.937-.938c0-5.398 4.184-10.008 10.174-11.212a.938.938 0 0 1 .37 1.838c-5.104 1.026-8.67 4.88-8.67 9.375a.938.938 0 0 1-.937.938v-.001Z"
         fill="currentColor" />
      <path
         d="M32.36 17.84H11.326a.94.94 0 0 1-.543-.173l-3.545-2.516a.938.938 0 0 1-.394-.764v-1.258a.938.938 0 0 1 .935-.938l5.58-.007c7.533-.008 15.05-.005 22.55.007a.938.938 0 0 1 .935.938v1.24a.939.939 0 0 1-.392.763l-3.547 2.533a.939.939 0 0 1-.544.175Zm-20.735-1.874H32.06l2.66-1.902c-7.102-.01-14.222-.013-21.36-.005l-4.413.005 2.678 1.902Zm10.666-6.599h-.895a3.307 3.307 0 0 1-3.302-3.301v-2.77a3.308 3.308 0 0 1 3.302-3.304h.895a3.308 3.308 0 0 1 3.303 3.304v2.769a3.307 3.307 0 0 1-3.303 3.302Zm-.895-7.5a1.43 1.43 0 0 0-1.427 1.43v2.768a1.43 1.43 0 0 0 1.427 1.427h.895a1.43 1.43 0 0 0 1.428-1.426v-2.77a1.43 1.43 0 0 0-1.428-1.429h-.895Zm31.385 58.14H34.97a.937.937 0 0 1-.938-.937V42.176a.937.937 0 0 1 .938-.937H52.78a.937.937 0 0 1 .938.937V59.07a.937.937 0 0 1-.938.937Zm-16.875-1.875h15.938V43.114H35.906v15.018Z"
         fill="currentColor" />
      <path
         d="M50.906 43.14a.937.937 0 0 1-.937-.938v-6.57H37.78v6.548a.937.937 0 1 1-1.875 0v-7.485a.938.938 0 0 1 .938-.938h14.062a.938.938 0 0 1 .938.938v7.507a.937.937 0 0 1-.938.938Z"
         fill="currentColor" />
      <path
         d="M46.219 48.757H41.53a.937.937 0 0 1-.937-.937v-5.618a.937.937 0 1 1 1.875 0v4.68h2.812v-4.68a.938.938 0 0 1 1.875 0v5.618a.937.937 0 0 1-.937.937Zm-1.875 7.5h-5.625a.937.937 0 1 1 0-1.875h5.625a.938.938 0 0 1 0 1.875Zm1.875-16.87H41.53a.938.938 0 0 1-.937-.938v-3.754a.937.937 0 1 1 1.875 0v2.816h2.812v-2.816a.938.938 0 0 1 1.875 0v3.754a.937.937 0 0 1-.937.937Z"
         fill="currentColor" />
   </svg><svg fill="currentColor" viewBox="0 0 60 60" id="benefits-4" xmlns="http://www.w3.org/2000/svg">
      <path
         d="M9.677 15.306v2.113h1.936v-1.935h1.935V12.58c0-1.601-1.302-2.904-2.903-2.904a.969.969 0 0 1-.968-.967v-.968h.968c.534 0 .968.434.968.968v.967h1.935V8.71a2.9 2.9 0 0 0-1.935-2.726V3.871H9.677v1.935H7.742V8.71c0 1.6 1.303 2.903 2.903 2.903.534 0 .968.434.968.968v.967h-.968a.969.969 0 0 1-.968-.967v-.968H7.742v.968a2.9 2.9 0 0 0 1.935 2.725Z"
         fill="currentColor" />
      <path
         d="M10.645 21.29c5.87 0 10.645-4.775 10.645-10.645C21.29 4.775 16.515 0 10.645 0 4.775 0 0 4.776 0 10.645c0 5.87 4.776 10.645 10.645 10.645Zm0-19.355c4.803 0 8.71 3.908 8.71 8.71 0 4.802-3.907 8.71-8.71 8.71-4.803 0-8.71-3.908-8.71-8.71 0-4.802 3.907-8.71 8.71-8.71ZM34.84 15.484h13.548V9.677H34.84v5.807Zm1.935-3.871h9.678v1.935h-9.678v-1.935ZM34.84 30.968h13.548V17.419H34.84v13.549Zm1.935-3.871h1.936v1.935h-1.936v-1.935Zm5.807-3.871v1.935h-1.936v-1.935h1.936Zm-1.936-1.936v-1.935h1.936v1.935h-1.936Zm1.936 7.742h-1.936v-1.935h1.936v1.935Zm-3.871-3.87h-1.936v-1.936h1.936v1.935Zm5.806 3.87v-5.806h1.936v5.806h-1.936Zm1.936-7.742h-1.936v-1.935h1.936v1.935Zm-7.742-1.935v1.935h-1.936v-1.935h1.936ZM32.903 38.71h1.936v1.935h-1.936V38.71Zm3.871 0h1.936v1.935h-1.936V38.71Zm3.871 0h1.936v1.935h-1.936V38.71Zm3.871 0h1.936v1.935h-1.936V38.71Zm3.871 0h1.936v1.935h-1.936V38.71ZM12.581 50.323a2.907 2.907 0 0 0-2.904 2.903c0 1.6 1.303 2.903 2.904 2.903 1.6 0 2.903-1.302 2.903-2.903 0-1.6-1.303-2.903-2.903-2.903Zm0 3.87a.968.968 0 1 1 0-1.935.968.968 0 0 1 0 1.935Zm36.774-3.87a2.907 2.907 0 0 0-2.903 2.903c0 1.6 1.302 2.903 2.903 2.903 1.6 0 2.903-1.302 2.903-2.903 0-1.6-1.303-2.903-2.903-2.903Zm0 3.87a.968.968 0 1 1 0-1.935.968.968 0 0 1 0 1.935Z"
         fill="currentColor" />
      <path
         d="M58.065 21.29h-5.807V7.742a1.937 1.937 0 0 0-1.935-1.936h-17.42a1.937 1.937 0 0 0-1.935 1.936V21.29h-7.742a1.937 1.937 0 0 0-1.936 1.936v1.935H7.742a2.913 2.913 0 0 0-2.322 1.162L.582 32.775A2.918 2.918 0 0 0 0 34.516v19.678c0 1.067.868 1.935 1.935 1.935H6.47c1.09 2.285 3.416 3.87 6.112 3.87 2.695 0 5.02-1.585 6.11-3.87h24.552c1.09 2.285 3.417 3.87 6.112 3.87 2.695 0 5.02-1.585 6.111-3.87h2.599A1.937 1.937 0 0 0 60 54.194V23.226a1.937 1.937 0 0 0-1.935-1.936ZM32.903 7.742h17.42l.002 25.161H32.903V7.742Zm-1.935 15.484v9.677c0 1.068.868 1.936 1.935 1.936h17.42a1.937 1.937 0 0 0 1.935-1.936v-9.677h5.806v27.096h-2.598c-1.09-2.284-3.416-3.87-6.111-3.87s-5.02 1.586-6.111 3.87H23.225V23.226h7.742Zm-24 4.257a.97.97 0 0 1 .774-.386H21.29v1.935H5.807l1.162-1.55ZM2.13 33.935l2.226-2.967H21.29v19.354h-1.935V32.903H8.71a4.844 4.844 0 0 0-4.839 4.839v12.58H1.935V34.517c0-.208.07-.414.194-.581Zm15.29 4.775H9.5a2.9 2.9 0 0 0-2.725-1.936h-.79A2.9 2.9 0 0 1 8.71 34.84h8.71v3.87Zm-11.613 0h.968a.968.968 0 0 1 0 1.935h-.968V38.71Zm0 3.87h.968A2.9 2.9 0 0 0 9.5 40.646h7.92v1.936h-1.935v1.935h1.935v3.979a6.749 6.749 0 0 0-4.838-2.043c-2.696 0-5.021 1.586-6.112 3.87h-.663v-7.741Zm-3.87 11.614v-1.936h3.948a6.8 6.8 0 0 0-.078.968c0 .329.032.65.078.968H1.935Zm10.645 3.87a4.844 4.844 0 0 1-4.84-4.838 4.844 4.844 0 0 1 4.84-4.839 4.844 4.844 0 0 1 4.838 4.839 4.844 4.844 0 0 1-4.838 4.839Zm6.696-3.87c.046-.318.078-.64.078-.968 0-.33-.032-.65-.078-.968h23.381a6.797 6.797 0 0 0-.077.968c0 .329.032.65.077.968h-23.38Zm30.078 3.87a4.844 4.844 0 0 1-4.839-4.838 4.844 4.844 0 0 1 4.839-4.839 4.844 4.844 0 0 1 4.839 4.839 4.844 4.844 0 0 1-4.84 4.839Zm6.697-3.87c.045-.318.077-.64.077-.968 0-.33-.032-.65-.077-.968h2.013v1.935h-2.013Z"
         fill="currentColor" />
   </svg><svg fill="currentColor" viewBox="0 0 53 60" id="benefits-5" xmlns="http://www.w3.org/2000/svg">
      <path
         d="M47.16 5c0-2.8-2.204-5-5.01-5H5.073C2.267 0 .063 2.2.063 5v8h8.016v42c0 2.8 2.205 5 5.01 5h34.072c2.805 0 5.01-2.2 5.01-5v-5h-5.01V5ZM8.08 11H2.066V5c0-1.7 1.302-3 3.006-3C6.777 2 8.08 3.3 8.08 5v6Zm2.004 44V5c0-1.1-.401-2.1-1.003-3h33.07c1.703 0 3.006 1.3 3.006 3v45H16.096v5c0 1.7-1.302 3-3.006 3-1.704 0-3.006-1.3-3.006-3Zm40.083-3v3c0 1.7-1.303 3-3.006 3H17.098c.702-.9 1.002-1.9 1.002-3v-3h32.067Z"
         fill="currentColor" />
      <path
         d="M35.136 32h8.016v2h-8.016v-2Zm-23.048 0h21.044v2H12.088v-2Zm11.023 4h20.041v2H23.111v-2Zm-11.023 0h9.018v2h-9.018v-2Zm18.037 8h13.027v2H30.125v-2Zm-18.037 0H28.12v2H12.088v-2Zm13.828-23.6 1.203.8 1.203-.8c3.607-2.4 5.812-6.5 5.812-10.8V6.3L27.119 4l-7.015 2.3v3.3c0 4.3 2.205 8.4 5.812 10.8ZM22.108 7.7 27.12 6l5.01 1.7v1.9c0 3.7-1.803 7.1-4.91 9.2h-.1l-.1-.1c-3.107-2-4.91-5.5-4.91-9.2V7.7Z"
         fill="currentColor" />
      <path
         d="m30.125 10.1-2.004-.2c-.2 1.7-1.102 3.3-2.505 4.3l1.102 1.7c1.904-1.4 3.207-3.5 3.407-5.8ZM18.1 40h25.052v2H18.1v-2Zm-6.012 0h4.008v2h-4.008v-2ZM23.11 28h20.041v2H23.111v-2Zm-11.023 0h9.018v2h-9.018v-2Zm8.016-5h14.03v2h-14.03v-2Z"
         fill="currentColor" />
   </svg><svg fill="currentColor" viewBox="0 0 52 50" id="benefits-6" xmlns="http://www.w3.org/2000/svg">
      <path d="M39.125 38.13a.937.937 0 0 1-.938-.938v-7.5a.938.938 0 0 1 1.876 0v7.5a.938.938 0 0 1-.938.938Z"
         fill="currentColor" />
      <path
         d="M46.625 38.13h-7.5a.938.938 0 0 1 0-1.875h7.5a.937.937 0 1 1 0 1.875Zm-25.514 9.375a.93.93 0 0 1-.469-.126L1.156 36.129a.937.937 0 0 1-.468-.812v-22.5c0-.335.178-.645.468-.812L20.642.755a.935.935 0 0 1 .938 0l19.486 11.25a.938.938 0 0 1 .468.812v9.447a.938.938 0 0 1-1.875 0v-8.906L21.111 2.65 2.562 13.358v21.418l18.549 10.708 4.134-2.387a.937.937 0 0 1 .938 1.624l-4.603 2.657a.931.931 0 0 1-.47.127Z"
         fill="currentColor" />
      <path
         d="M39.037 49.371c-1.167 0-2.329-.173-3.455-.515-4.314-1.308-7.627-5.015-8.443-9.444-.83-4.508.998-9.202 4.66-11.96 2.084-1.569 4.694-2.433 7.35-2.433 1.921 0 3.824.453 5.505 1.31 4.046 2.063 6.658 6.327 6.658 10.863 0 3.27-1.318 6.348-3.712 8.664-2.306 2.234-5.428 3.515-8.563 3.515Zm.111-22.477c-2.25 0-4.461.73-6.22 2.055-3.1 2.334-4.648 6.308-3.945 10.123.69 3.747 3.494 6.883 7.143 7.99 3.513 1.065 7.483.047 10.17-2.554 2.027-1.959 3.142-4.558 3.142-7.316 0-3.839-2.212-7.447-5.635-9.193a10.29 10.29 0 0 0-4.655-1.105ZM9.493 18.297a.937.937 0 0 1-.47-1.75L28.51 5.297a.938.938 0 1 1 .937 1.624L9.961 18.171a.93.93 0 0 1-.468.126Zm3.75 2.165a.937.937 0 0 1-.47-1.749L32.26 7.463a.938.938 0 1 1 .937 1.624l-19.486 11.25a.93.93 0 0 1-.468.125Z"
         fill="currentColor" />
      <path d="M13.242 26.957a.938.938 0 0 1-.937-.937v-6.495a.938.938 0 0 1 1.875 0v6.495a.938.938 0 0 1-.938.937Z"
         fill="currentColor" />
      <path
         d="M13.242 26.958a.933.933 0 0 1-.468-.126l-3.75-2.166a.938.938 0 1 1 .937-1.623l3.75 2.165a.938.938 0 0 1-.47 1.75Z"
         fill="currentColor" />
      <path
         d="M9.492 24.792a.938.938 0 0 1-.937-.938V17.36a.937.937 0 1 1 1.875 0v6.495a.938.938 0 0 1-.938.938Zm11.619 22.713a.938.938 0 0 1-.938-.938v-22.5a.937.937 0 1 1 1.875 0v22.5a.937.937 0 0 1-.937.938Z"
         fill="currentColor" />
      <path
         d="M21.11 25.005a.935.935 0 0 1-.468-.126L1.156 13.629a.937.937 0 1 1 .938-1.624l19.486 11.25a.937.937 0 0 1-.47 1.75Z"
         fill="currentColor" />
      <path
         d="M21.112 25.005a.938.938 0 0 1-.47-1.75l19.486-11.25a.939.939 0 0 1 1.379 1.055.94.94 0 0 1-.441.569L21.58 24.879a.935.935 0 0 1-.468.126Z"
         fill="currentColor" />
   </svg><svg fill="currentColor" viewBox="0 0 32 32" id="calendar" xmlns="http://www.w3.org/2000/svg">
      <path
         d="M27.875 2.5H25V1a1 1 0 0 0-2 0v1.5H9V1a1 1 0 0 0-2 0v1.5H4.125A4.13 4.13 0 0 0 0 6.625v21.25A4.13 4.13 0 0 0 4.125 32h23.75A4.13 4.13 0 0 0 32 27.875V6.625A4.13 4.13 0 0 0 27.875 2.5Zm-23.75 2H7v1a1 1 0 0 0 2 0v-1h14v1a1 1 0 0 0 2 0v-1h2.875C29.047 4.5 30 5.453 30 6.625V9H2V6.625C2 5.453 2.953 4.5 4.125 4.5ZM27.875 30H4.125A2.127 2.127 0 0 1 2 27.875V11h28v16.875A2.127 2.127 0 0 1 27.875 30Z"
         fill="currentColor" />
   </svg><svg fill="currentColor" viewBox="0 0 12 10" id="check" xmlns="http://www.w3.org/2000/svg">
      <path
         d="M5.127 9.849a.29.29 0 0 1-.421.022L.096 5.507a.306.306 0 0 1-.013-.432l1.47-1.552a.306.306 0 0 1 .43-.012l2.52 2.383a.29.29 0 0 0 .42-.021L9.844.156a.306.306 0 0 1 .43-.033l1.62 1.394a.306.306 0 0 1 .032.431l-6.8 7.901Z"
         fill="currentColor" />
   </svg><svg fill="currentColor" viewBox="0 0 26 27" id="date" xmlns="http://www.w3.org/2000/svg">
      <path
         d="M25.281 6.686C25.123 4.059 22.929 2 20.287 2H19V1a1 1 0 0 0-2 0v1H9V1a1 1 0 0 0-2 0v1H5.713C3.07 2 .877 4.059.72 6.686c-.297 4.942-.291 9.955.016 14.9a5.006 5.006 0 0 0 4.679 4.678 122.326 122.326 0 0 0 15.171 0 5.006 5.006 0 0 0 4.678-4.678c.308-4.942.314-9.955.018-14.9Zm-2.013 14.776a3.003 3.003 0 0 1-2.806 2.806c-4.951.308-9.973.308-14.924 0a3.003 3.003 0 0 1-2.806-2.806C2.498 17.646 2.445 13.82 2.573 10h20.854c.126 3.82.078 7.662-.159 11.462ZM8 6a1 1 0 0 0 1-1V4h8v1a1 1 0 0 0 2 0V4h1.287a2.999 2.999 0 0 1 2.998 2.806c.023.396.033.796.052 1.194H2.663c.02-.398.029-.798.053-1.194A2.998 2.998 0 0 1 5.713 4H7v1a1 1 0 0 0 1 1Z"
         fill="currentColor" />
      <path
         d="M8 16a1.5 1.5 0 1 0 0-3 1.5 1.5 0 0 0 0 3ZM13 16a1.5 1.5 0 1 0 0-3 1.5 1.5 0 0 0 0 3ZM8 21a1.5 1.5 0 1 0 0-3 1.5 1.5 0 0 0 0 3ZM18 16a1.5 1.5 0 1 0 0-3 1.5 1.5 0 0 0 0 3ZM18 21a1.5 1.5 0 1 0 0-3 1.5 1.5 0 0 0 0 3ZM13 21a1.5 1.5 0 1 0 0-3 1.5 1.5 0 0 0 0 3Z"
         fill="currentColor" />
   </svg><svg fill="currentColor" viewBox="0 0 32 33" id="instagram" xmlns="http://www.w3.org/2000/svg">
      <path
         d="M24 .5H8c-4.4 0-8 3.599-8 8v16c0 4.4 3.6 8 8 8h16c4.4 0 8-3.6 8-8v-16c0-4.401-3.6-8-8-8Zm-8 22.666a6.667 6.667 0 1 1 0-13.333 6.667 6.667 0 0 1 0 13.333Zm8.667-13.333a2 2 0 1 1-.001-3.999 2 2 0 0 1 0 4Z"
         fill="currentColor" />
   </svg><svg fill="currentColor" viewBox="0 0 32 32" id="kg" xmlns="http://www.w3.org/2000/svg">
      <path
         d="M31.684 29.176v-.017L27.67 11.407v-.004c-.233-1.086-1.178-1.846-2.31-1.846h-5.695a5.505 5.505 0 0 0 1.75-4.03C21.415 2.48 18.93 0 15.878 0S10.34 2.48 10.34 5.527c0 1.586.676 3.02 1.75 4.03H6.406c-1.133 0-2.081.75-2.31 1.823v.004L.08 29.154v.018a2.29 2.29 0 0 0 .474 1.939c.461.563 1.124.89 1.818.89h27.007c.698 0 1.383-.332 1.84-.89a2.306 2.306 0 0 0 .465-1.935ZM11.862 5.531c0-2.211 1.8-4.007 4.015-4.007a4.014 4.014 0 0 1 4.016 4.008 4.017 4.017 0 0 1-8.03 0Zm18.17 24.623a.894.894 0 0 1-.663.331H2.367c-.232 0-.465-.12-.64-.33a.79.79 0 0 1-.16-.675l4.01-17.756v-.018c.076-.375.407-.625.82-.625H25.35c.407 0 .743.268.819.647 0 .005 0 .005.005.01v.008l4.01 17.734a.758.758 0 0 1-.152.674Z"
         fill="currentColor" />
      <path
         d="M15.59 17.595h-1.973l-1.894 2.194-.004.004c-.054.063-.108.134-.166.206V14.7H9.995v9.494h1.558v-2.457l.345-.38 2.023 2.837h1.93l-2.874-3.838 2.614-2.76Z"
         fill="currentColor" />
      <path
         d="M20.296 18.136c-.332-.34-.886-.684-1.764-.684a2.83 2.83 0 0 0-2.086.92c-.604.644-.922 1.533-.922 2.57 0 .884.282 1.697.788 2.291a2.686 2.686 0 0 0 2.063.943c.69 0 1.317-.24 1.768-.66v.093c0 1.291-.595 1.944-1.768 1.944a3.33 3.33 0 0 1-1.71-.465l-.241-.148-.421 1.283.143.094c.52.335 1.356.544 2.189.544.569 0 1.638-.102 2.395-.795.662-.59.958-1.51.958-2.984v-3.584c0-.741.027-1.233.05-1.67l.013-.237h-1.433l-.022.545Zm-.215 1.666a1.4 1.4 0 0 1 .054.438v1.108c0 .192-.027.38-.077.527-.21.613-.738 1.01-1.347 1.01-1.19 0-1.616-1.081-1.616-2.006 0-1.26.65-2.109 1.616-2.109.654-.004 1.164.384 1.37 1.032Z"
         fill="currentColor" />
   </svg><svg fill="currentColor" viewBox="0 0 28 32" id="location" xmlns="http://www.w3.org/2000/svg">
      <path
         d="M23.57 3.964A13.446 13.446 0 0 0 14 0a13.446 13.446 0 0 0-9.57 3.964 13.446 13.446 0 0 0-3.964 9.57c0 7.314 6.915 13.396 10.63 16.664.516.454.962.847 1.317 1.178A2.32 2.32 0 0 0 14 32a2.32 2.32 0 0 0 1.587-.624c.356-.331.801-.724 1.318-1.178 3.715-3.268 10.63-9.35 10.63-16.664 0-3.615-1.408-7.013-3.965-9.57Zm-7.904 24.827c-.527.464-.983.865-1.358 1.216a.452.452 0 0 1-.616 0c-.375-.351-.83-.752-1.358-1.216C8.84 25.719 2.34 20 2.34 13.534c0-6.429 5.23-11.66 11.66-11.66s11.66 5.231 11.66 11.66c0 6.466-6.501 12.185-9.994 15.257Z"
         fill="currentColor" />
      <path
         d="M14 7.059a5.971 5.971 0 0 0-5.964 5.964A5.971 5.971 0 0 0 14 18.987a5.971 5.971 0 0 0 5.965-5.964A5.971 5.971 0 0 0 14 7.059Zm0 10.054a4.095 4.095 0 0 1-4.09-4.09A4.095 4.095 0 0 1 14 8.933a4.095 4.095 0 0 1 4.09 4.09 4.095 4.095 0 0 1-4.09 4.09Z"
         fill="currentColor" />
   </svg><svg fill="currentColor" viewBox="0 0 60 61" id="location-2" xmlns="http://www.w3.org/2000/svg">
      <path
         d="M54.882 42.567a1.758 1.758 0 0 0-1.692 3.081c2.093 1.15 3.294 2.426 3.294 3.5 0 1.312-1.86 3.346-7.08 5.12C44.249 56.02 37.357 56.985 30 56.985s-14.248-.965-19.405-2.717c-5.22-1.774-7.08-3.808-7.08-5.12 0-1.074 1.202-2.35 3.295-3.5a1.758 1.758 0 1 0-1.692-3.08C2.783 43.85 0 46.032 0 49.147c0 2.387 1.642 5.79 9.464 8.448C14.976 59.47 22.27 60.5 30 60.5c7.731 0 15.024-1.031 20.536-2.904C58.358 54.94 60 51.535 60 49.147c0-3.114-2.783-5.297-5.118-6.58Z"
         fill="currentColor" />
      <path
         d="M16.729 51.726C20.297 52.734 25.01 53.29 30 53.29s9.703-.555 13.271-1.564c4.366-1.233 6.58-3.018 6.58-5.305 0-2.288-2.214-4.073-6.58-5.306a34.313 34.313 0 0 0-3.143-.718c-.63 1.087-1.268 2.169-1.913 3.247 1.24.186 2.404.414 3.462.683 3.213.819 4.387 1.74 4.628 2.094-.242.354-1.415 1.275-4.628 2.093-3.04.775-6.953 1.217-11.074 1.256a8.203 8.203 0 0 1-1.206 0c-4.12-.04-8.033-.48-11.074-1.256-3.213-.818-4.387-1.739-4.628-2.093.241-.354 1.415-1.276 4.628-2.094a35.443 35.443 0 0 1 3.462-.683 254.616 254.616 0 0 1-1.913-3.247c-1.12.204-2.174.444-3.143.718-4.366 1.233-6.58 3.018-6.58 5.306 0 2.287 2.214 4.072 6.58 5.305Z"
         fill="currentColor" />
      <path
         d="M30 46.277a4.425 4.425 0 0 0 3.803-2.133c5.72-9.358 12.538-21.691 12.538-27.303C46.34 7.83 39.01.5 30 .5c-9.01 0-16.34 7.33-16.34 16.34 0 5.613 6.818 17.946 12.538 27.305A4.426 4.426 0 0 0 30 46.276ZM23.432 15.72A6.575 6.575 0 0 1 30 9.15a6.575 6.575 0 0 1 6.568 6.568A6.575 6.575 0 0 1 30 22.286a6.575 6.575 0 0 1-6.568-6.567Z"
         fill="currentColor" />
   </svg><svg fill="currentColor" viewBox="0 0 60 43" id="mail" xmlns="http://www.w3.org/2000/svg">
      <path
         d="M59.471 3.42 41.275 21.5l18.197 18.08A5.213 5.213 0 0 0 60 37.32V5.68c0-.812-.2-1.572-.529-2.26ZM54.727.406H5.273c-.811 0-1.571.2-2.259.529l23.258 23.14a5.278 5.278 0 0 0 7.456 0L56.986.935a5.212 5.212 0 0 0-2.26-.529ZM.529 3.42A5.212 5.212 0 0 0 0 5.68v31.64c0 .812.2 1.572.529 2.26L18.725 21.5.53 3.42Z"
         fill="currentColor" />
      <path
         d="m38.79 23.985-2.576 2.575c-3.426 3.427-9.002 3.427-12.428 0l-2.575-2.575-18.197 18.08a5.211 5.211 0 0 0 2.26.528h49.453c.811 0 1.571-.2 2.259-.528l-18.197-18.08Z"
         fill="currentColor" />
   </svg><svg fill="currentColor" viewBox="0 0 24 24" id="telegram" xmlns="http://www.w3.org/2000/svg">
      <g clip-path="url(#pa)">
         <path
            d="m9.417 15.181-.397 5.584c.568 0 .814-.244 1.11-.537l2.662-2.545 5.518 4.041c1.012.564 1.725.267 1.998-.931L23.93 3.821l.001-.001c.321-1.496-.54-2.081-1.527-1.714l-21.29 8.151c-1.453.564-1.43 1.374-.247 1.741l5.443 1.693L18.953 5.78c.595-.394 1.136-.176.691.218L9.417 15.181Z"
            fill="currentColor" />
      </g>
      <defs>
         <clipPath id="pa">
            <path fill="currentColor" d="M0 0h24v24H0z" />
         </clipPath>
      </defs>
   </svg><svg fill="currentColor" viewBox="0 0 60 61" id="telephone" xmlns="http://www.w3.org/2000/svg">
      <path
         d="M1.638 25.952C.578 23.089-.189 20.165.042 17.058c.147-1.913.865-3.546 2.267-4.886 1.523-1.438 2.96-2.948 4.459-4.41 1.95-1.925 4.398-1.913 6.348 0 1.206 1.181 2.4 2.388 3.594 3.594 1.157 1.157 2.327 2.315 3.484 3.484 2.035 2.06 2.047 4.46.013 6.506-1.462 1.463-2.912 2.937-4.399 4.375-.39.377-.426.694-.219 1.17.975 2.339 2.388 4.422 3.972 6.371 3.192 3.923 6.799 7.408 11.1 10.1.925.573 1.937 1 2.9 1.524.499.268.828.182 1.23-.232a304.336 304.336 0 0 1 4.422-4.447c1.95-1.925 4.387-1.937 6.336 0a983.495 983.495 0 0 1 7.127 7.128c1.986 1.998 1.974 4.447-.024 6.457-1.352 1.365-2.778 2.656-4.045 4.082-1.852 2.07-4.191 2.753-6.847 2.607-3.875-.207-7.444-1.499-10.892-3.168-7.652-3.716-14.182-8.87-19.653-15.376-4.045-4.825-7.383-10.064-9.577-15.985ZM60 30.314C59.999 13.878 46.621.5 30.185.5v5.678c13.305 0 24.136 10.831 24.136 24.136H60Zm-16.326 0h5.677c0-10.564-8.601-19.165-19.165-19.165v5.677a13.4 13.4 0 0 1 9.54 3.948 13.4 13.4 0 0 1 3.948 9.54Z"
         fill="currentColor" />
   </svg><svg fill="currentColor" viewBox="0 0 24 24" id="whatsapp" xmlns="http://www.w3.org/2000/svg">
      <path
         d="M12.003 0h-.006C5.38 0 0 5.382 0 12c0 2.625.846 5.058 2.284 7.034L.79 23.49l4.613-1.474A11.896 11.896 0 0 0 12.003 24C18.619 24 24 18.616 24 12c0-6.617-5.38-12-11.997-12Zm6.982 16.945c-.289.818-1.438 1.496-2.354 1.694-.628.134-1.447.24-4.204-.903-3.526-1.461-5.797-5.045-5.974-5.277-.17-.232-1.425-1.897-1.425-3.62 0-1.722.875-2.56 1.227-2.92.29-.295.768-.43 1.227-.43.148 0 .282.007.402.013.352.015.53.036.762.593.29.697.994 2.419 1.079 2.596.085.177.17.417.05.65-.112.24-.211.346-.388.55-.177.204-.345.36-.522.579-.162.19-.345.394-.141.747.204.345.909 1.495 1.947 2.42 1.34 1.192 2.426 1.573 2.814 1.735.29.12.635.091.846-.133.269-.29.6-.77.938-1.243.24-.338.543-.38.86-.26.324.112 2.039.96 2.391 1.135.353.177.585.261.671.41.084.148.084.845-.206 1.664Z"
         fill="currentColor" />
   </svg>
</svg>