<svg width="150" height="116" viewBox="0 0 150 116" fill="none" xmlns="http://www.w3.org/2000/svg">
<path d="M133.39 60.8997L117.331 53.4955C116.361 53.0479 115.301 52.8292 114.232 52.8561C113.164 52.883 112.116 53.1549 111.17 53.6508C109.101 54.7348 108.882 57.6109 110.763 58.9954L128.418 71.9924L128.449 71.9215C129.123 72.2499 129.974 72.1905 130.904 71.6537C133.078 70.3984 134.842 67.0304 134.842 64.1303C134.842 62.4894 134.275 61.3506 133.39 60.8997ZM145.393 34.742L138.869 32.826C137.339 32.3764 135.694 32.539 134.282 33.2795C131.759 34.6011 131.403 38.0698 133.603 39.8781L141.101 46.0339L141.133 45.9642C141.805 46.2923 142.658 46.232 143.587 45.6952C145.762 44.4396 147.524 41.0716 147.524 38.173C147.524 36.1427 146.658 34.885 145.393 34.742Z" fill="#EDEDED"/>
<path d="M41.1242 95.1325L22.9364 86.7463C21.8268 86.2348 20.6146 85.9849 19.3931 86.0159C18.1717 86.0469 16.9737 86.3579 15.8914 86.925C13.526 88.1642 13.2752 91.4531 15.4256 93.0357L35.6152 107.898L35.6498 107.82C36.42 108.196 37.3959 108.125 38.4582 107.512C40.9449 106.076 42.9602 102.224 42.9602 98.9089C42.9602 96.9246 42.2377 95.5834 41.1242 95.1325ZM60.2347 39.29L71.5676 19.9139L67.442 17.5321L44.5413 27.4198L60.2347 39.29ZM120.592 81.3389L144.459 25.6532L138.379 22.1932L98.491 65.4454L120.592 81.3389Z" fill="#CECECE"/>
<path d="M42.9599 98.9092C42.9599 102.224 40.9443 106.076 38.4579 107.512C35.9709 108.947 33.9556 107.423 33.9556 104.108C33.9556 100.793 35.9712 96.9407 38.4579 95.5055C40.9446 94.0694 42.9599 95.594 42.9599 98.9092Z" fill="white"/>
<path d="M41.3006 99.8669C41.3006 101.96 40.0279 104.393 38.4579 105.299C36.8879 106.206 35.6149 105.243 35.6149 103.15C35.6149 101.056 36.8876 98.6238 38.4579 97.7177C40.0282 96.8115 41.3006 97.7736 41.3006 99.8669Z" fill="#2E373D"/>
<path d="M80.1553 93.6642L61.9685 85.2779C60.8588 84.7662 59.6464 84.5161 58.4248 84.5468C57.2032 84.5776 56.0049 84.8883 54.9223 85.4552C52.5569 86.6947 52.3061 89.9839 54.4577 91.5665L74.6461 106.43L74.6815 106.351C75.4506 106.728 76.4267 106.656 77.4887 106.042C79.9755 104.607 81.9908 100.756 81.9908 97.4396C81.9908 95.4562 81.2686 94.1139 80.1553 93.6642Z" fill="#CECECE"/>
<path d="M81.9908 97.4408C81.9908 100.756 79.9755 104.607 77.4888 106.043C75.0021 107.478 72.9868 105.955 72.9868 102.639C72.9868 99.3231 75.0021 95.4724 77.4888 94.0362C79.9755 92.601 81.9908 94.1253 81.9908 97.4405V97.4408Z" fill="white"/>
<path d="M80.3317 98.3985C80.3317 100.492 79.0588 102.923 77.4888 103.83C75.9188 104.737 74.6461 103.775 74.6461 101.681C74.6461 99.5877 75.9188 97.1558 77.4888 96.2493C79.0591 95.342 80.3314 96.3044 80.3314 98.3985H80.3317Z" fill="#2E373D"/>
<path d="M134.842 64.1303C134.842 67.0304 133.078 70.3984 130.904 71.6537C128.729 72.9091 126.967 71.577 126.967 68.6772C126.967 65.7782 128.729 62.4091 130.904 61.1549C133.078 59.8995 134.842 61.2317 134.842 64.1303Z" fill="#CECECE"/>
<path d="M133.391 64.9693C133.391 66.7992 132.277 68.9267 130.904 69.7183C129.532 70.5117 128.418 69.6706 128.418 67.8395C128.418 66.0085 129.532 63.8821 130.904 63.0891C132.277 62.296 133.391 63.1383 133.391 64.9693Z" fill="#2E373D"/>
<path d="M147.524 38.173C147.524 41.0716 145.762 44.4396 143.587 45.6953C141.413 46.9509 139.649 45.6185 139.649 42.7187C139.649 39.8198 141.413 36.4518 143.587 35.1964C145.762 33.9411 147.524 35.2729 147.524 38.173H147.524Z" fill="#CECECE"/>
<path d="M146.073 39.0106C146.073 40.8416 144.961 42.968 143.587 43.7611C142.214 44.5541 141.101 43.7118 141.101 41.882C141.101 40.0509 142.214 37.9245 143.587 37.1315C144.961 36.3384 146.073 37.1795 146.073 39.0106Z" fill="#2E373D"/>
<path d="M136.07 86.7085L149.067 105.485C150.811 108.005 150.031 111.478 147.376 113.01C142.77 115.67 137.359 116.581 132.135 115.575L131.937 115.537C123.24 113.833 115.111 109.967 108.055 104.607L67.941 74.1337C52.2205 62.1922 40.0145 46.2289 32.6108 27.9281L32.4087 27.4301C32.0973 26.6584 31.9372 25.8341 31.937 25.0019C31.937 22.5893 34.5485 21.082 36.6371 22.2896L115.806 68.0558C123.859 72.6952 130.78 79.0663 136.07 86.7085Z" fill="#EDEDED"/>
<path d="M142.966 96.6718C140.541 98.5649 137.718 99.8843 134.71 100.531C128.896 101.782 122.829 100.994 117.527 98.3001L113.449 96.2276L83.7588 79.0854C69.1702 70.6625 55.7097 60.4217 43.7002 48.6088C50.3298 58.3224 58.4951 66.9583 67.9409 74.1337L108.055 104.607C115.111 109.967 123.24 113.833 131.937 115.537C132.004 115.55 132.07 115.564 132.135 115.576C137.359 116.582 142.77 115.671 147.376 113.01C150.031 111.478 150.811 108.006 149.067 105.485L142.966 96.6718Z" fill="#F51515"/>
<path d="M104.094 93.0085L11.5459 97.0322L0 89.422L71.095 73.9562L104.094 93.0085Z" fill="#EDEDED"/>
<path d="M37.9106 24.4286L31.937 0L43.6616 7.16982L55.9088 35.0648L37.9106 24.4286Z" fill="#F51515"/>
<path d="M53.739 43.2598L16.7299 39.29L10.357 35.5854L35.5522 32.7598L53.739 43.2598Z" fill="#EDEDED"/>
<path d="M135.994 86.5998C135.992 86.5986 135.991 86.5986 135.99 86.5986L122.782 93.1972C122.037 93.5695 121.209 93.7431 120.377 93.7012C119.545 93.6593 118.738 93.4034 118.034 92.9581C116.827 92.1946 115.226 92.6446 114.592 93.924C114.389 94.3319 114.357 94.8035 114.503 95.235C114.648 95.6665 114.959 96.0227 115.366 96.2253C116.909 96.9905 118.61 97.3833 120.332 97.3721C122.054 97.361 123.75 96.9462 125.283 96.1611L138.077 89.6083L135.994 86.5998ZM109.647 93.6425L109.902 93.7901C110.849 94.3371 111.617 93.7559 111.617 92.4935V91.0491C111.617 89.7858 110.85 88.3186 109.902 87.7717L109.647 87.624C108.699 87.077 107.931 87.6571 107.931 88.9207V90.365C107.931 91.6283 108.699 93.0955 109.647 93.6425ZM103.967 90.3533L104.222 90.501C105.17 91.0479 105.938 90.4679 105.938 89.2043V87.76C105.938 86.4967 105.17 85.0295 104.222 84.4825L103.967 84.3349C103.019 83.7879 102.252 84.3683 102.252 85.6315V87.0759C102.252 88.3392 103.019 89.8063 103.967 90.3533ZM98.3627 87.0644L98.6191 87.2121C99.5665 87.7591 100.335 87.1787 100.335 85.9154V84.4711C100.335 83.2078 99.5665 81.7406 98.6191 81.1936L98.3627 81.046C97.4153 80.499 96.6474 81.0791 96.6474 82.3424V83.7867C96.6474 85.0503 97.415 86.5172 98.3627 87.0644ZM92.6833 83.7753L92.9393 83.9229C93.8856 84.4699 94.6549 83.8898 94.6549 82.6263V81.1819C94.6549 79.9187 93.8871 78.4515 92.9393 77.9045L92.683 77.7568C91.7355 77.2099 90.9677 77.7899 90.9677 79.0535V80.4978C90.9677 81.7611 91.7358 83.2283 92.6833 83.7753Z" fill="#304E75"/>
</svg>
