<svg width="148" height="150" viewBox="0 0 148 150" fill="none" xmlns="http://www.w3.org/2000/svg">
<path d="M41.7181 0L1.0224e-08 24.0864V82.3446C-9.46929e-05 84.843 0.657725 87.2973 1.90729 89.4608C3.15686 91.6242 4.9541 93.4205 7.11825 94.6689L57.3837 123.668V111.492L98.7473 87.374V33.3354L41.7181 0Z" fill="#EDEDED"/>
<path d="M41.7181 0L1.0224e-08 24.0864V82.3446C-9.46929e-05 84.843 0.657725 87.2973 1.90729 89.4608C3.15686 91.6242 4.9541 93.4205 7.11825 94.6689L57.3837 123.668V111.492L98.7473 87.374V33.3354L41.7181 0Z" fill="#EDEDED"/>
<path d="M57.384 57.2168L98.7476 33.3354V87.3755L57.3837 111.494L57.384 57.2168Z" fill="#CECECE"/>
<path d="M137.297 76.6501C136.795 73.4821 135.594 70.4657 133.78 67.8205C131.966 65.1754 129.584 62.9682 126.81 61.3595L99.3209 45.4262C98.0641 44.697 96.6382 44.8379 95.5785 45.5416L59.3958 66.34C58.2389 66.8975 57.384 68.0682 57.384 69.5363V123.668L99.4103 147.959C100.501 148.589 101.728 148.505 102.679 147.95L139.221 126.949C139.259 126.928 139.296 126.908 139.331 126.886L139.332 126.885C140.252 126.331 140.907 125.331 140.907 124.102V122.605C140.907 107.216 139.7 91.8502 137.297 76.6498V76.6501Z" fill="#F51515"/>
<path d="M44.912 107.773L31.8556 98.5884C29.9343 93.7876 26.7345 89.5211 23.1102 87.4281C17.2347 84.0361 12.4716 87.6361 12.4716 95.471C12.4716 103.304 17.2347 112.406 23.1102 115.798C25.8946 117.406 28.4282 117.44 30.3245 116.201L44.912 107.773Z" fill="#23292E"/>
<path d="M147.078 121.996C147.078 120.781 146.449 119.652 145.414 119.014L139.093 115.114L139.109 121.719L107.11 140.434C106.291 140.913 105.35 141.146 104.402 141.103C103.454 141.061 102.538 140.746 101.765 140.196L99.1021 141.739V147.754L101.81 149.33C102.561 149.767 103.413 149.998 104.282 150C105.15 150.002 106.004 149.774 106.756 149.339L143.563 128.107C144.633 127.485 145.52 126.593 146.136 125.521C146.753 124.448 147.078 123.233 147.078 121.996Z" fill="#2E373D"/>
<path d="M90.4241 134.143L77.3665 124.957C75.4461 120.156 72.2465 115.889 68.6211 113.798C62.7456 110.404 57.9825 114.006 57.9825 121.839C57.9825 129.674 62.7456 138.774 68.6211 142.168C71.4063 143.775 73.9402 143.81 75.8363 142.569L90.4241 134.143Z" fill="#23292E"/>
<path d="M99.1023 147.754V141.739L101.765 140.194C102.505 140.721 103.377 141.032 104.283 141.093C104.157 126.559 102.955 112.051 100.685 97.6923C100.184 94.5242 98.9822 91.5079 97.168 88.8628C95.3538 86.2177 92.9725 84.0106 90.1976 82.402L62.709 66.4683C60.3447 65.0972 57.384 66.8035 57.384 69.5366V111.493C64.0416 115.368 69.0966 121.493 71.6386 128.765L71.7429 129.066C72.572 131.438 74.2253 133.433 76.4017 134.689L99.1023 147.754Z" fill="#950909"/>
<path d="M140.424 105.837L137.341 111.641C136.293 113.617 134.706 115.256 132.765 116.367L118.145 124.738C115.95 125.995 113.453 126.628 110.924 126.568L103.789 126.399L102.588 125.705C101.575 125.122 100.31 125.852 100.31 127.021V134.89C100.31 137.043 101.135 139.115 102.614 140.679C103.068 140.879 103.548 141.01 104.04 141.067C104.04 141.069 104.041 141.071 104.041 141.073C104.923 141.178 105.817 141.041 106.628 140.679L140.888 120.679C140.856 115.727 140.707 110.779 140.424 105.837Z" fill="#CECECE"/>
<path d="M102.045 94.6311L104.637 114.437C104.981 117.072 107.891 118.512 110.194 117.186L135.057 102.88C135.99 102.343 136.743 101.54 137.218 100.574C137.693 99.608 137.87 98.5223 137.726 97.4553L134.717 75.1531C134.582 74.1438 133.464 73.598 132.584 74.1096L103.943 90.7698C103.281 91.1545 102.748 91.7263 102.41 92.4134C102.072 93.1004 101.945 93.872 102.045 94.6311Z" fill="#2E373D"/>
<path d="M109.541 112.02L134.405 97.714C136.14 96.715 137.157 94.8517 137.109 92.8824L134.717 75.1531C134.581 74.1438 133.464 73.598 132.584 74.1096L103.943 90.7686C102.683 91.501 101.959 92.8721 102.026 94.3094L103.984 109.271C104.329 111.906 107.239 113.346 109.541 112.02Z" fill="#304E75"/>
<path d="M98.737 113.09L97.5057 100.106C97.274 97.6622 96.4595 95.3096 95.1305 93.2456C93.8015 91.1816 91.9969 89.4664 89.868 88.2441L65.2633 74.1175C64.0194 73.4035 62.4684 74.3021 62.4684 75.7358V85.9531C62.4684 87.402 62.8086 88.8307 63.4616 90.1241C64.1146 91.4175 65.0622 92.5395 66.2281 93.3998L95.4391 114.956C96.8834 116.021 98.9066 114.877 98.737 113.09Z" fill="#243B58"/>
<path d="M132.366 74.2367L116.87 83.2499L131.718 94.2066C133.162 95.2718 135.185 94.1263 135.016 92.341L133.785 79.3554C133.613 77.5543 133.121 75.8284 132.366 74.2367Z" fill="#59718B"/>
<path d="M140.889 120.678C140.856 115.727 140.707 110.779 140.424 105.838L137.341 111.643C137.338 111.651 137.334 111.657 137.329 111.665C136.355 113.488 135.635 115.433 135.382 117.483L134.53 124.39L140.889 120.678Z" fill="white"/>
<path d="M115.442 127.361L134.53 116.403L133.768 122.243C133.69 122.833 133.478 123.396 133.147 123.89C132.816 124.384 132.376 124.794 131.86 125.09L120.358 131.671C119.177 132.346 117.671 131.886 117.07 130.665L115.442 127.361Z" fill="#2E373D"/>
<path d="M145.414 119.014L140.823 116.181C140.855 117.679 140.879 119.178 140.889 120.678L107.11 140.434C106.291 140.913 105.35 141.146 104.402 141.103C103.454 141.061 102.538 140.746 101.765 140.195L99.1021 141.739L101.813 143.314C102.563 143.75 103.414 143.979 104.281 143.981C105.148 143.982 106 143.754 106.75 143.321L143.562 122.085C143.562 122.085 146.653 120.586 145.414 119.014H145.414ZM57.9825 121.84C57.9825 118.102 59.0685 115.33 60.8413 113.82C59.7406 112.971 58.5858 112.194 57.3843 111.494V105.736L1.0224e-08 72.7627V82.3445C-9.46929e-05 84.8429 0.657725 87.2973 1.90729 89.4607C3.15686 91.6242 4.9541 93.4204 7.11825 94.6688L58.0672 124.063L58.1026 124.039C58.0237 123.309 57.9836 122.575 57.9825 121.84Z" fill="#23292E"/>
<path d="M57.384 105.736V57.217L0 24.0864V72.7613L57.384 105.736Z" fill="#82A5B9"/>
<path d="M79.2605 134.125C79.2605 141.959 74.4974 145.559 68.6211 142.167C62.7456 138.774 57.9825 129.674 57.9825 121.839C57.9825 114.006 62.7456 110.404 68.6211 113.797C74.4974 117.19 79.2605 126.29 79.2605 134.125Z" fill="#2E373D"/>
<path d="M73.852 131.001C73.852 134.853 71.5106 136.624 68.6211 134.956C65.7324 133.289 63.391 128.815 63.391 124.962C63.391 121.11 65.7324 119.34 68.6211 121.007C71.5106 122.676 73.852 127.15 73.852 131.001Z" fill="#CECECE"/>
<path d="M71.4579 129.62C71.4579 131.709 70.1887 132.669 68.6211 131.765C67.0543 130.861 65.784 128.433 65.784 126.345C65.784 124.255 67.0543 123.295 68.6211 124.199C70.1887 125.104 71.4579 127.53 71.4579 129.62Z" fill="#627681"/>
<path d="M33.7485 107.755C33.7485 115.59 28.9857 119.19 23.1102 115.798C17.2347 112.406 12.4716 103.304 12.4716 95.4711C12.4716 87.6365 17.2347 84.0362 23.1102 87.4282C28.9857 90.8202 33.7485 99.9215 33.7485 107.755Z" fill="#2E373D"/>
<path d="M28.3412 104.633C28.3412 108.485 25.9986 110.256 23.1102 108.587C20.2215 106.92 17.879 102.445 17.879 98.5929C17.879 94.7421 20.2215 92.9705 23.1102 94.639C25.9989 96.3066 28.3412 100.781 28.3412 104.633Z" fill="#CECECE"/>
<path d="M25.947 103.251C25.947 105.34 24.6767 106.301 23.1102 105.396C21.5434 104.491 20.2731 102.065 20.2731 99.9754C20.2731 97.8856 21.5434 96.9267 23.1102 97.8308C24.6767 98.7349 25.947 101.162 25.947 103.251Z" fill="#627681"/>
<path d="M115.356 129.397C114.592 127.654 112.857 126.609 110.955 126.569C110.944 126.568 110.934 126.568 110.924 126.568L103.79 126.398L103.789 126.4C104.076 131.291 104.227 136.19 104.269 141.093C104.193 141.087 104.116 141.076 104.04 141.066C104.04 141.069 104.041 141.071 104.041 141.073C104.923 141.177 105.817 141.041 106.628 140.679L117.515 134.324L115.356 129.397Z" fill="white"/>
</svg>
