<svg width="1920" height="1341" viewBox="0 0 1920 1341" fill="none" xmlns="http://www.w3.org/2000/svg">
<path opacity="0.7" d="M17.552 11.0076C-95.7588 93.5294 -306.866 317.089 -244.808 551.15C-167.235 843.728 -120.565 50.5181 189.095 11.0076C498.755 -28.5028 -463.02 759.205 -161.559 1134.3C139.902 1509.4 98.9087 34.0137 693.633 11.0076C1288.36 -11.9984 -133.179 1067.79 189.095 1329.86C511.368 1591.93 768.682 60.0206 1197.54 23.0108C1626.4 -13.9989 575.697 1096.79 732.104 1243.33C888.51 1389.87 1241.69 -18 1652.25 -18C2062.82 -18 950.316 924.249 1116.81 1165.31C1283.31 1406.38 1780.28 11.0076 2045.16 11.0076C2310.05 11.0076 1372.24 1038.78 1592.97 1263.84C1813.71 1488.9 1912.72 437.62 2305 452.124" stroke="white" stroke-width="100"/>
</svg>
