<svg width="950" height="800" viewBox="0 0 950 800" fill="none" xmlns="http://www.w3.org/2000/svg">
<path opacity="0.7" d="M215.89 -149C94.0568 -42.6667 -133.41 205.1 -68.6099 345.5C12.3901 521 134.89 -32.5 296.39 -78.5C457.89 -124.5 -28.6099 555.5 -0.109894 753C28.3901 950.5 364.89 -22.5 532.39 -78.5C699.89 -134.5 88.3901 710.5 171.39 890C254.39 1069.5 550.89 -24.5 730.39 -78.5C909.89 -132.5 334.89 780.5 451.89 859.5C568.89 938.5 798.39 -94.5 945.89 -100.5C1093.39 -106.5 625.89 837.5 714.39 890C802.89 942.5 933.89 309 1030.89 293" stroke="white" stroke-width="100"/>
</svg>
