<svg width="200" height="166" viewBox="0 0 200 166" fill="none" xmlns="http://www.w3.org/2000/svg">
<path fill-rule="evenodd" clip-rule="evenodd" d="M197.638 149.418H177.106C175.784 149.418 174.715 148.321 174.772 147C174.997 139.012 168.584 132.402 160.596 132.402C152.637 132.402 146.224 139.012 146.449 147C146.505 148.321 145.437 149.418 144.115 149.418H123.583C122.289 149.418 121.221 148.35 121.221 147.056V76.9953C121.221 75.7015 122.289 74.6609 123.583 74.6609H129.63V108.468C129.63 109.733 130.671 110.802 131.965 110.802H181.972C189.706 114.768 200 118.058 200 130.096V147.056C200 148.35 198.931 149.418 197.638 149.418Z" fill="#8F8F8F"/>
<path fill-rule="evenodd" clip-rule="evenodd" d="M180.003 149.418H177.106C175.784 149.418 174.715 148.321 174.771 146.999C174.996 139.012 168.584 132.402 160.596 132.402C152.637 132.402 146.224 139.012 146.449 146.999C146.505 148.321 145.437 149.418 144.115 149.418H141.218C139.502 137.577 148.671 126.974 160.596 126.974C172.549 126.974 181.718 137.577 180.003 149.418Z" fill="#737374"/>
<path fill-rule="evenodd" clip-rule="evenodd" d="M129.63 74.6609H136.211C153.959 74.6609 168.753 86.2204 173.984 103.349C174.996 106.752 178.175 108.861 181.972 110.802H131.965C130.671 110.802 129.63 109.733 129.63 108.468V74.6609Z" fill="#E2E3E3"/>
<path fill-rule="evenodd" clip-rule="evenodd" d="M199.859 127.762C200.028 129.28 200 130.884 200 132.431H191.787C190.522 132.431 189.453 131.39 189.453 130.096C189.453 128.802 190.522 127.762 191.787 127.762H199.859Z" fill="#C7C7C7"/>
<path fill-rule="evenodd" clip-rule="evenodd" d="M50.4008 149.39C50.6539 141.402 44.2132 132.402 36.2537 132.402C28.2942 132.402 21.8816 139.012 22.1066 146.999C22.1347 148.321 21.0941 149.39 19.7722 149.39H15.3002C11.1095 149.39 7.67822 145.987 7.67822 141.768V124.302C7.67822 109.508 107.242 119.605 123.583 119.605C124.849 119.605 125.918 120.674 125.918 121.968V149.39H50.4008Z" fill="#686868"/>
<path fill-rule="evenodd" clip-rule="evenodd" d="M50.4007 149.39C50.6539 141.402 44.2131 132.402 36.2536 132.402C28.2941 132.402 21.8815 139.012 22.1065 146.999C22.1347 148.321 21.094 149.39 19.7721 149.39H16.8752C15.1595 137.577 24.3284 126.974 36.2536 126.974C48.2069 126.974 57.3758 137.577 55.6602 149.39H50.4007Z" fill="#545455"/>
<path fill-rule="evenodd" clip-rule="evenodd" d="M36.2537 165.422C25.8754 165.422 17.4097 156.956 17.4097 146.578C17.4097 136.171 25.8754 127.705 36.2537 127.705C46.6601 127.705 55.1259 136.171 55.1259 146.578C55.1259 156.956 46.6601 165.422 36.2537 165.422ZM160.596 165.422C150.218 165.422 141.752 156.956 141.752 146.578C141.752 136.171 150.218 127.705 160.596 127.705C171.003 127.705 179.468 136.171 179.468 146.578C179.468 156.956 171.003 165.422 160.596 165.422Z" fill="#3D3D3D"/>
<path fill-rule="evenodd" clip-rule="evenodd" d="M7.14386 124.302C3.2063 124.302 0 121.096 0 117.158V69.6264C0 65.6888 3.2063 62.4825 7.14386 62.4825H118.774C122.711 62.4825 125.918 65.6888 125.918 69.6264V124.302H7.14386Z" fill="#C2C2C3"/>
<path fill-rule="evenodd" clip-rule="evenodd" d="M135.199 123.008H132.274C131.008 123.008 129.939 121.968 129.939 120.674C129.939 119.38 131.008 118.34 132.274 118.34H135.199C136.493 118.34 137.561 119.38 137.561 120.674C137.561 121.968 136.521 123.008 135.199 123.008Z" fill="#737374"/>
<path fill-rule="evenodd" clip-rule="evenodd" d="M160.596 157.659C154.493 157.659 149.515 152.681 149.515 146.578C149.515 140.446 154.493 135.468 160.596 135.468C166.728 135.468 171.706 140.446 171.706 146.578C171.706 152.681 166.728 157.659 160.596 157.659ZM36.2536 157.659C30.1504 157.659 25.144 152.681 25.144 146.578C25.144 140.446 30.1504 135.468 36.2536 135.468C42.3849 135.468 47.3631 140.446 47.3631 146.578C47.3631 152.681 42.3849 157.659 36.2536 157.659Z" fill="#E6E7E7"/>
<path fill-rule="evenodd" clip-rule="evenodd" d="M134.974 75.6172C152.693 75.6172 167.515 87.1767 172.746 104.305C173.59 107.146 175.981 109.086 178.962 110.802H181.972C178.175 108.861 174.996 106.752 173.984 103.349C168.753 86.2204 153.959 74.6609 136.211 74.6609H129.63V75.6172H134.974Z" fill="#DDDDDD"/>
<path fill-rule="evenodd" clip-rule="evenodd" d="M93.0672 115.64H32.0912C27.5912 115.64 23.9067 111.955 23.9067 107.455V22.9663C23.9067 18.4381 27.5912 14.7537 32.0912 14.7537H44.1289C45.479 14.7537 46.5477 15.9068 46.4633 17.285H78.7232C78.6107 15.9068 79.7076 14.7537 81.0576 14.7537H93.0672C97.5954 14.7537 101.252 18.4381 101.252 22.9663V107.455C101.252 111.955 97.5954 115.64 93.0672 115.64Z" fill="#F51515"/>
<path fill-rule="evenodd" clip-rule="evenodd" d="M46.435 17.4537C46.2663 18.5788 45.2819 19.4506 44.1288 19.4506H32.0911C30.1785 19.4506 28.6035 21.0257 28.6035 22.9663V107.455C28.6035 109.396 30.1785 110.943 32.0911 110.943H93.067C95.0077 110.943 96.5827 109.396 96.5827 107.455V22.9663C96.5827 21.0257 95.0077 19.4506 93.067 19.4506H81.0575C79.8762 19.4506 78.9199 18.5788 78.7512 17.4537H46.435Z" fill="#F1F1F1"/>
<path fill-rule="evenodd" clip-rule="evenodd" d="M76.8106 26.3976H48.3757C44.6913 26.3976 41.6819 23.5851 41.6819 20.0975V13.1224C41.6819 9.63486 44.6913 6.82232 48.3757 6.82232H53.2977C54.4508 2.99726 58.2478 0.240967 62.5791 0.240967C66.9104 0.240967 70.7073 2.99726 71.8886 6.82232H76.8106C80.495 6.82232 83.4763 9.63486 83.4763 13.1224V20.0975C83.4763 23.5851 80.495 26.3976 76.8106 26.3976ZM62.5791 15.9068C59.5697 15.9068 57.1228 13.4599 57.1228 10.4505C57.1228 7.44108 59.5697 4.99417 62.5791 4.99417C65.5885 4.99417 68.0354 7.44108 68.0354 10.4505C68.0354 13.4599 65.5885 15.9068 62.5791 15.9068Z" fill="#B50C0C"/>
<path fill-rule="evenodd" clip-rule="evenodd" d="M48.3757 6.62541C44.6913 6.62541 41.6819 9.46607 41.6819 12.9255V19.9287C41.6819 22.235 43.0038 24.2601 44.9726 25.3569C43.9038 24.2319 43.2288 22.7413 43.2288 21.11V14.1068C43.2288 10.6473 46.2101 7.80667 49.8945 7.80667H54.8165C56.6165 1.95658 63.9854 -0.630957 69.4136 2.71597C64.1541 -2.20598 55.2946 0.0721788 53.2977 6.62541H48.3757Z" fill="#9F0E0E"/>
<path fill-rule="evenodd" clip-rule="evenodd" d="M90.5638 95.7268H80.5793C79.2855 95.7268 78.2167 94.6862 78.2167 93.3924C78.2167 92.0986 79.2855 91.058 80.5793 91.058H90.5638C91.8576 91.058 92.8982 92.0986 92.8982 93.3924C92.8982 94.6862 91.8576 95.7268 90.5638 95.7268ZM68.8228 95.7268H34.6223C33.3285 95.7268 32.2598 94.6862 32.2598 93.3924C32.2598 92.0986 33.3285 91.058 34.6223 91.058H68.8228C70.1166 91.058 71.1572 92.0986 71.1572 93.3924C71.1572 94.6862 70.1166 95.7268 68.8228 95.7268ZM90.5638 105.88H63.704C62.4102 105.88 61.3696 104.839 61.3696 103.546C61.3696 102.252 62.4102 101.211 63.704 101.211H90.5638C91.8576 101.211 92.8982 102.252 92.8982 103.546C92.8982 104.839 91.8576 105.88 90.5638 105.88ZM51.9476 105.88H34.6223C33.3285 105.88 32.2598 104.839 32.2598 103.546C32.2598 102.252 33.3285 101.211 34.6223 101.211H51.9476C53.2413 101.211 54.3101 102.252 54.3101 103.546C54.3101 104.839 53.2413 105.88 51.9476 105.88Z" fill="#C6C6C6"/>
<path fill-rule="evenodd" clip-rule="evenodd" d="M62.579 85.686C62.4384 85.686 62.2978 85.686 62.1571 85.6298C56.307 83.9141 50.9069 80.3703 46.9413 75.6452C42.8631 70.8358 40.613 65.2107 40.613 59.7825V42.0353C40.613 41.4447 40.9787 40.8822 41.5412 40.6291C47.9819 37.9009 56.6164 33.3164 61.5384 28.7039C62.129 28.1414 63.0571 28.1414 63.6478 28.7039C68.5697 33.3164 77.1761 37.9009 83.6168 40.6291C84.1793 40.8822 84.5731 41.4166 84.5731 42.0353V59.7825C84.5731 71.5389 74.2511 82.4235 63.029 85.6298C62.8884 85.686 62.7196 85.686 62.579 85.686Z" fill="#B50C0C"/>
<path fill-rule="evenodd" clip-rule="evenodd" d="M62.5791 78.6828C62.4104 78.6828 62.2697 78.6546 62.101 78.6265C53.8883 75.9265 46.407 67.9951 46.407 59.3606V46.1698C46.407 45.5791 46.7726 45.0166 47.3351 44.7916C50.6539 43.301 56.9259 40.2072 61.5947 36.4102C62.1854 35.9321 63.001 35.9321 63.5635 36.4102C68.2323 40.2353 74.5043 43.301 77.8512 44.7916C78.3856 45.0166 78.7512 45.5791 78.7512 46.1698V59.3606C78.7512 67.9951 71.3261 75.8702 63.0572 78.6265C62.9166 78.6546 62.7479 78.6828 62.5791 78.6828Z" fill="#F51515"/>
<path fill-rule="evenodd" clip-rule="evenodd" d="M57.2633 64.817C56.5883 64.817 55.9977 64.367 55.8008 63.7482L53.8039 57.42C53.5227 56.6325 53.9727 55.7606 54.7883 55.5075C55.6039 55.2543 56.4758 55.7044 56.729 56.4919L58.0509 60.6826L69.3854 51.6824C70.0604 51.1762 71.0167 51.2887 71.5511 51.9355C72.0854 52.6106 71.9729 53.5668 71.2979 54.1012L58.2196 64.4795C57.9383 64.7045 57.6008 64.817 57.2633 64.817Z" fill="white"/>
</svg>
