<svg width="146" height="150" viewBox="0 0 146 150" fill="none" xmlns="http://www.w3.org/2000/svg">
<path d="M145.062 100.176V75.6281L131.264 60.4213V44.5186L99.5003 26.0455C98.7688 25.6194 97.9375 25.3938 97.0905 25.3916C96.2436 25.3894 95.4111 25.6106 94.6774 26.0329L90.03 28.7109L41.9294 1.06991C40.7001 0.36276 39.305 -0.00651595 37.8861 -0.000288737C36.4672 0.00593847 35.0754 0.387446 33.8523 1.10536L9.11912 15.6278C7.93028 16.1763 7.04613 17.3631 7.04613 18.8552V68.3716L0.146729 72.3472V88.2501L33.3938 107.401V113.013L59.4903 128.05L64.3648 125.242L96.7677 143.907H110.565L143.435 124.967L145.062 116.079L145.077 100.168L145.062 100.176Z" fill="#ED5100"/>
<path d="M11.8438 83.1425C9.98716 82.0726 8.29372 82.0301 7.01505 82.8267L4.05909 84.5672C2.46075 85.4072 1.44128 87.4823 1.44128 90.4609C1.44128 95.7654 4.67376 101.928 8.65947 104.226C10.5308 105.304 12.236 105.338 13.5176 104.523L16.6814 102.664L16.6987 102.654C18.1503 101.732 19.0617 99.724 19.0617 96.9074C19.0617 91.602 15.831 85.4394 11.8438 83.1425Z" fill="#23292E"/>
<path d="M15.8777 98.7797C15.8777 104.084 12.6463 106.523 8.65947 104.226C4.67376 101.928 1.44128 95.7666 1.44128 90.4609C1.44128 85.1555 4.67376 82.7177 8.65947 85.0146C12.6463 87.3115 15.8777 93.4744 15.8777 98.7797Z" fill="#2E373D"/>
<path d="M14.0774 97.7417C14.0774 101.724 11.6521 103.554 8.65947 101.83C5.66799 100.106 3.24158 95.4803 3.24158 91.498C3.24158 87.5165 5.66799 85.6866 8.65947 87.4099C11.6521 89.1346 14.0774 93.7603 14.0774 97.7417Z" fill="#23292E"/>
<path d="M10.5847 95.7298C10.5847 97.1443 9.72231 97.7944 8.65939 97.1821C7.59648 96.5686 6.73523 94.9254 6.73523 93.5109C6.73523 92.0964 7.59648 91.4464 8.65939 92.0587C9.72231 92.671 10.5847 94.3142 10.5847 95.7296V95.7298ZM59.4902 128.05L64.3648 125.242L59.4902 122.388V128.05Z" fill="#2E373D"/>
<path d="M27.2547 92.4727C25.398 91.4027 23.7046 91.3617 22.4259 92.158L22.4251 92.1568L19.47 93.8988C17.8702 94.7388 16.8522 96.8136 16.8522 99.7913C16.8522 105.097 20.0835 111.26 24.0704 113.556C25.9167 114.621 27.5996 114.667 28.8759 113.886L28.8794 113.884C28.8956 113.873 28.9117 113.864 28.9288 113.855L32.0923 111.994L32.1096 111.985V111.984C33.5611 111.064 34.4726 109.055 34.4726 106.238C34.4726 100.934 31.2416 94.771 27.2544 92.4729L27.2547 92.4727Z" fill="#23292E"/>
<path d="M31.2885 108.11C31.2885 113.415 28.0572 115.853 24.0704 113.556C20.0847 111.26 16.8522 105.097 16.8522 99.7913C16.8522 94.4871 20.0847 92.0481 24.0704 94.345C28.0572 96.6419 31.2885 102.806 31.2885 108.11Z" fill="#2E373D"/>
<path d="M29.4883 107.073C29.4883 111.055 27.063 112.886 24.0704 111.161C21.0789 109.436 18.6525 104.811 18.6525 100.829C18.6525 96.8467 21.0789 95.0168 24.0704 96.7403C27.063 98.4651 29.4883 103.091 29.4883 107.073Z" fill="#23292E"/>
<path d="M25.9957 105.06C25.9957 106.475 25.1333 107.125 24.0704 106.513C23.0075 105.901 22.1462 104.257 22.1462 102.841C22.1462 101.427 23.0075 100.777 24.0704 101.389C25.1333 102.002 25.9957 103.646 25.9957 105.06Z" fill="#2E373D"/>
<path d="M33.3938 107.351V113.013L59.4902 128.05V122.388L33.3938 107.351Z" fill="#525E65"/>
<path d="M79.3801 132.283C79.3801 126.978 76.1476 120.815 72.1619 118.518C70.3043 117.449 68.6118 117.406 67.3331 118.203L67.3322 118.202L64.3774 119.943C62.7776 120.783 61.7596 122.858 61.7596 125.836C61.7596 131.141 64.9907 137.304 68.9778 139.601C70.8489 140.68 72.5532 140.714 73.8359 139.898L76.9997 138.039C77.0053 138.035 77.0112 138.033 77.0168 138.03C78.4683 137.108 79.3798 135.1 79.3798 132.283H79.3801Z" fill="#23292E"/>
<path d="M76.1957 134.156C76.1957 139.46 72.9635 141.899 68.9775 139.602C64.9906 137.304 61.7593 131.143 61.7593 125.837C61.7593 120.531 64.9906 118.094 68.9775 120.391C72.9635 122.687 76.1957 128.85 76.1957 134.156Z" fill="#2E373D"/>
<path d="M74.3954 133.118C74.3954 137.1 71.9692 138.93 68.9775 137.205C65.9848 135.482 63.5596 130.856 63.5596 126.874C63.5596 122.892 65.9848 121.063 68.9775 122.786C71.9692 124.511 74.3954 129.136 74.3954 133.118Z" fill="#23292E"/>
<path d="M70.902 131.105C70.902 132.519 70.0404 133.17 68.9775 132.557C67.9149 131.945 67.0525 130.301 67.0525 128.887C67.0525 127.473 67.9146 126.822 68.9775 127.435C70.0404 128.047 70.902 129.69 70.902 131.105Z" fill="#2E373D"/>
<path d="M95.472 141.817C95.472 136.512 92.2407 130.349 88.2538 128.053C86.3974 126.983 84.704 126.94 83.4253 127.737V127.736L80.4694 129.477C78.871 130.317 77.8516 132.392 77.8516 135.371C77.8516 140.675 81.0829 146.838 85.0697 149.136C86.9411 150.214 88.646 150.248 89.929 149.433L93.0972 147.57L93.109 147.564C94.5617 146.642 95.472 144.634 95.472 141.817Z" fill="#23292E"/>
<path d="M92.2879 143.689C92.2879 148.994 89.0566 151.433 85.0697 149.136C81.0829 146.838 77.8516 140.675 77.8516 135.371C77.8516 130.066 81.0829 127.627 85.0697 129.925C89.0566 132.222 92.2879 138.384 92.2879 143.689Z" fill="#2E373D"/>
<path d="M90.4876 142.652C90.4876 146.634 88.0624 148.464 85.0698 146.74C82.0768 145.016 79.6519 140.39 79.6519 136.408C79.6519 132.426 82.0768 130.597 85.0698 132.32C88.0624 134.045 90.4876 138.67 90.4876 142.652Z" fill="#23292E"/>
<path d="M86.9948 140.639C86.9948 142.053 86.1327 142.704 85.0697 142.091C84.0068 141.479 83.1444 139.835 83.1444 138.421C83.1444 137.006 84.0068 136.356 85.0697 136.969C86.1324 137.581 86.9948 139.224 86.9948 140.639Z" fill="#2E373D"/>
<path d="M96.7665 103.457L82.9689 88.2501L131.263 60.4213L145.062 75.6284L96.7665 103.457Z" fill="#FFD613"/>
<path d="M96.7665 100.71L84.6591 87.3686L129.572 61.3403L141.681 74.6821L96.7665 100.71Z" fill="#2E373D"/>
<path d="M96.7665 128V103.457L145.062 75.6284V100.171L96.7665 128ZM82.9689 88.25V72.3471L89.8683 60.4212L124.364 40.5442L131.264 44.5186V60.4212L82.9689 88.25ZM7.04614 68.3727V18.8551C7.04614 16.1223 10.0068 14.4126 12.3804 15.7746L62.5953 44.5186L55.696 56.4457V96.3878L7.04614 68.3727Z" fill="#E33400"/>
<path d="M55.696 62.0866L7.04614 34.5291V40.4286L55.696 68.446V62.0866Z" fill="#FFD613"/>
<path d="M12.3804 15.7746C10.0068 14.4126 7.04614 16.1223 7.04614 18.8551V34.529L55.696 62.383V56.4457L62.5954 44.5186L12.3804 15.7746Z" fill="#2E373D"/>
<path d="M55.6959 56.4457V104.339L0.146729 72.3471V88.2501L96.7665 143.907V103.457L82.9689 88.2501V72.3471L55.6959 56.4457Z" fill="#872E02"/>
<path d="M0.146729 72.3472L55.6959 104.339V96.3879L7.04613 68.3716L0.146729 72.3472Z" fill="#525E65"/>
<path d="M7.04614 68.3727V52.4701L55.696 80.4864V96.3879L7.04614 68.3727ZM96.7665 128.004V143.907H110.565L143.435 124.967L145.062 116.079L145.077 100.168L96.7665 128.004Z" fill="#2E373D"/>
<path d="M96.7665 128.004H110.536L143.435 109.064L145.077 100.168L96.7665 128.004Z" fill="#525E65"/>
<path d="M96.7665 112.103C100.962 109.686 105.721 108.413 110.565 108.413C115.41 108.413 120.169 109.686 124.364 112.103L96.7665 128.005V112.103ZM145.062 84.2742C138.125 88.2714 133.031 94.8194 130.869 102.517L128.914 109.481L145.077 100.168L145.062 84.2742Z" fill="#2E373D"/>
<path d="M82.9689 72.3472L55.6959 56.4457L62.5953 44.5187L89.8683 60.4213L82.9689 72.3472Z" fill="#F07433"/>
<path d="M108.78 114.733C108.78 117.62 107.022 120.974 104.852 122.225C102.682 123.475 100.923 122.149 100.923 119.26C100.923 116.373 102.682 113.019 104.852 111.769C107.021 110.518 108.78 111.846 108.78 114.733ZM143.262 94.6143C143.262 97.5015 141.503 100.856 139.334 102.106C137.164 103.356 135.405 102.029 135.405 99.1416C135.405 96.2541 137.164 92.8999 139.334 91.6501C141.503 90.3991 143.262 91.7268 143.262 94.614V94.6143Z" fill="white"/>
<path d="M3.25974 58.2393C1.87598 57.4424 0.146729 58.4379 0.146729 60.0323V88.2501L96.7677 143.907V112.103L3.25974 58.2393ZM29.815 76.6421L41.5728 83.4287V96.206L29.815 89.4346V76.6421ZM27.774 88.2592L15.9853 81.4694V68.6599L27.774 75.4647V88.2592ZM2.18684 61.3404C2.18684 61.0541 2.49888 60.8745 2.74633 61.0187L13.9458 67.4824V80.294L2.18655 73.5226L2.18684 61.3404ZM55.6965 104.339L43.6144 97.3802V84.6062L55.6965 91.5803V104.339Z" fill="#171C1F"/>
<path d="M79.4569 85.2826L72.9758 81.5484C72.0095 80.9909 71.2263 79.4964 71.2263 78.21V69.5859C71.2263 68.2983 72.0095 67.708 72.9758 68.2652L79.4569 71.9994C80.4236 72.5554 81.2076 74.0513 81.2076 75.3363V83.9619C81.2076 85.248 80.4236 85.8386 79.4569 85.2826Z" fill="#243B58"/>
<path d="M140.712 95.3349L112.606 111.549V111.534C111.985 111.897 111.47 112.416 111.112 113.039C110.754 113.662 110.565 114.368 110.565 115.086V128.006L112.606 126.813V115.288C112.606 115.084 112.66 114.884 112.762 114.707C112.864 114.53 113.011 114.384 113.188 114.282L120.922 109.826V122.038L122.963 120.852V108.65L133.364 102.656V114.863L135.405 113.688V101.481L140.868 98.3323C140.917 98.3041 140.973 98.2893 141.029 98.2894C141.086 98.2895 141.141 98.3044 141.19 98.3327C141.239 98.361 141.28 98.4016 141.308 98.4506C141.337 98.4995 141.352 98.555 141.352 98.6115V110.26L143.392 109.068V96.8774C143.392 95.5054 141.902 94.6482 140.712 95.3349Z" fill="#171C1F"/>
<path d="M107.055 63.382C107.055 61.9239 105.473 61.0165 104.212 61.7478L86.6634 71.9214C85.5567 72.5601 84.6591 74.271 84.6591 75.7438V82.9491C84.6591 84.4218 85.557 85.0995 86.6634 84.4608L104.411 74.1703C105.215 73.704 105.883 73.0351 106.347 72.2306C106.811 71.4261 107.055 70.5142 107.055 69.5859V63.382ZM127.568 48.205L113.364 56.441C112.494 56.9448 111.772 57.6678 111.27 58.5377C110.769 59.4075 110.504 60.3937 110.505 61.3974V68.2479C110.505 69.3076 111.657 69.9691 112.575 69.437L127.568 60.7441C128.675 60.1066 129.572 58.3945 129.572 56.9217V49.7176C129.572 48.2449 128.675 47.5675 127.568 48.205Z" fill="#304E75"/>
<path d="M118.164 53.6566C118.453 54.5838 119.038 55.4466 119.721 55.8404L126.203 59.5757C127.17 60.1318 127.953 59.5412 127.953 58.255V49.6294C127.953 49.1513 127.844 48.643 127.657 48.1658C127.627 48.1807 127.599 48.1874 127.568 48.2047L118.164 53.6566Z" fill="#59718B"/>
</svg>
